<?xml version="1.0" encoding="UTF-8"?>
<svg version="1.1" xmlns="http://www.w3.org/2000/svg" width="600" height="450">
<path d="M0 0 C198 0 396 0 600 0 C600 148.5 600 297 600 450 C402 450 204 450 0 450 C0 301.5 0 153 0 0 Z " fill="#191919" transform="translate(0,0)"/>
<path d="M0 0 C2.65402854 1.1010372 4.54751178 0.99130381 7.40625 0.83203125 C12.73323385 0.71047591 16.32645473 1.70745415 21.15625 3.89453125 C21.15625 4.55453125 21.15625 5.21453125 21.15625 5.89453125 C22.14625 6.22453125 23.13625 6.55453125 24.15625 6.89453125 C26.2209604 10.68894936 26.37497326 13.94262297 26.28125 18.20703125 C26.26320313 19.27566406 26.24515625 20.34429687 26.2265625 21.4453125 C26.20335937 22.25355469 26.18015625 23.06179687 26.15625 23.89453125 C25.49625 23.89453125 24.83625 23.89453125 24.15625 23.89453125 C24.15625 23.23453125 24.15625 22.57453125 24.15625 21.89453125 C18.52191322 19.48523573 13.2873389 19.66373294 7.28125 19.76953125 C6.30671875 19.77855469 5.3321875 19.78757813 4.328125 19.796875 C1.93724272 19.82031502 -0.45312261 19.85312683 -2.84375 19.89453125 C-2.34875 20.88453125 -2.34875 20.88453125 -1.84375 21.89453125 C0.18088255 22.54666417 0.18088255 22.54666417 2.15625 22.89453125 C2.15625 23.88453125 2.15625 24.87453125 2.15625 25.89453125 C1.49625 25.89453125 0.83625 25.89453125 0.15625 25.89453125 C-0.21113281 26.70470703 -0.21113281 26.70470703 -0.5859375 27.53125 C-2.14191449 30.45474714 -4.02988158 33.0216647 -5.96875 35.70703125 C-9.37067482 40.52163737 -12.393608 45.4365867 -15.15625 50.64453125 C-15.46900879 51.23339111 -15.78176758 51.82225098 -16.10400391 52.42895508 C-16.40612793 53.01056396 -16.70825195 53.59217285 -17.01953125 54.19140625 C-17.3326123 54.77929932 -17.64569336 55.36719238 -17.96826172 55.97290039 C-18.92074297 57.91247378 -18.92074297 57.91247378 -19.42626953 60.18920898 C-20.23705536 62.95858672 -20.97538049 64.67502842 -22.84375 66.89453125 C-27.74560828 69.1891809 -32.83785789 70.30865977 -38.09375 71.45703125 C-39.52166333 71.79797471 -40.94876331 72.14234384 -42.375 72.49023438 C-45.85605992 73.33148622 -49.34594491 74.1254585 -52.84375 74.89453125 C-51.81181519 74.68739502 -51.81181519 74.68739502 -50.7590332 74.47607422 C-24.06998665 69.15212238 2.44489684 65.2885197 29.56054688 62.89575195 C30.86443359 62.7793335 32.16832031 62.66291504 33.51171875 62.54296875 C34.67340576 62.44161621 35.83509277 62.34026367 37.03198242 62.23583984 C39.79673956 61.93380574 42.43318918 61.44102597 45.15625 60.89453125 C46.84259046 60.74400431 48.53206565 60.62629321 50.22265625 60.53515625 C80.63113482 58.7156404 111.21971299 55.60189568 141.15625 49.89453125 C142.11241211 49.71986328 143.06857422 49.54519531 144.05371094 49.36523438 C170.7777234 44.4778621 196.46814199 37.83253764 221.71557617 27.79907227 C223.85425463 27.00645411 225.93320519 26.39203435 228.15625 25.89453125 C223.70690473 32.2490251 218.65398613 37.74743163 213.15625 43.20703125 C211.89711792 44.4587915 211.89711792 44.4587915 210.61254883 45.73583984 C203.85220474 52.37055093 196.9112874 58.45620011 189.15625 63.89453125 C188.59663574 64.28785645 188.03702148 64.68118164 187.46044922 65.08642578 C174.93539968 73.75871158 161.30565203 80.32052439 147.15625 85.89453125 C159.52658278 86.01317838 171.84072786 85.85446628 184.19775391 85.25244141 C190.8599054 84.93222347 197.48542715 84.76541855 204.15625 84.89453125 C199.63750186 91.08207367 193.47411833 94.7715866 187.15625 98.89453125 C186.10695313 99.5803125 185.05765625 100.26609375 183.9765625 100.97265625 C154.69502865 119.52006173 124.43346199 125.98938119 90.15625 127.89453125 C91.22101563 128.15621094 92.28578125 128.41789063 93.3828125 128.6875 C96.90942048 129.56799243 100.42044765 130.49805755 103.9296875 131.4453125 C115.60757696 134.5761092 127.28193937 137.47843699 139.15625 139.76953125 C140.1982959 139.97231689 141.2403418 140.17510254 142.31396484 140.3840332 C148.91014152 141.61450452 155.46455182 142.40879036 162.15625 142.89453125 C162.15625 143.55453125 162.15625 144.21453125 162.15625 144.89453125 C122.959822 162.76727831 84.4747004 167.12866494 43.15625 153.89453125 C40.6484375 152.7421875 40.6484375 152.7421875 39.15625 151.89453125 C39.15625 152.55453125 39.15625 153.21453125 39.15625 153.89453125 C39.99414062 154.13945312 40.83203125 154.384375 41.6953125 154.63671875 C45.56950961 156.04472267 48.99043266 157.94466577 52.53125 160.01953125 C66.20480423 167.86548252 80.46521497 175.14703308 95.15625 180.89453125 C86.25038669 185.59779387 76.61454001 185.29903796 66.78125 185.26953125 C66.07137939 185.26865509 65.36150879 185.26777893 64.63012695 185.26687622 C46.49643019 185.19308104 31.37323875 181.99270159 15.15625 173.89453125 C14.1974292 173.43022705 14.1974292 173.43022705 13.21923828 172.95654297 C2.97015216 167.97043114 -5.73904923 161.87930033 -14.46069336 154.5324707 C-16.67488237 152.66790825 -18.78253914 150.93062996 -21.28125 149.45703125 C-24.80067416 147.31104091 -27.77190547 144.62997782 -30.84375 141.89453125 C-30.08578125 142.72597656 -30.08578125 142.72597656 -29.3125 143.57421875 C-28.6628125 144.29867187 -28.013125 145.023125 -27.34375 145.76953125 C-26.6940625 146.48882812 -26.044375 147.208125 -25.375 147.94921875 C-23.84375 149.89453125 -23.84375 149.89453125 -23.84375 151.89453125 C-23.18375 151.89453125 -22.52375 151.89453125 -21.84375 151.89453125 C-21.84375 152.55453125 -21.84375 153.21453125 -21.84375 153.89453125 C-21.0084375 154.23484375 -21.0084375 154.23484375 -20.15625 154.58203125 C-17.19683639 156.26169843 -15.21966214 158.46204977 -12.84375 160.89453125 C-10.87675834 162.60576749 -8.86624251 164.24831642 -6.84375 165.89453125 C-6.18375 165.56453125 -5.52375 165.23453125 -4.84375 164.89453125 C-0.02406737 169.04796363 4.71358291 173.28618116 9.40625 177.58203125 C9.91317383 178.04520752 10.42009766 178.50838379 10.94238281 178.9855957 C13.06545329 180.93454638 15.15351227 182.89169727 17.15625 184.96484375 C19.56805185 187.29185569 22.16836765 189.15175176 24.90625 191.08203125 C26.67347334 192.32880269 28.42890774 193.5930682 30.15625 194.89453125 C30.15625 195.22453125 30.15625 195.55453125 30.15625 195.89453125 C23.8016372 196.06542223 18.10670174 195.57116908 11.90625 194.20703125 C11.08213623 194.02841553 10.25802246 193.8497998 9.40893555 193.66577148 C-0.76411085 191.36006593 -10.30501392 188.02490587 -18.84375 181.89453125 C-19.50890625 181.42015625 -20.1740625 180.94578125 -20.859375 180.45703125 C-25.37733324 177.14616109 -29.62954596 173.58195979 -33.84375 169.89453125 C-32.85375 172.36953125 -32.85375 172.36953125 -31.84375 174.89453125 C-31.18375 174.89453125 -30.52375 174.89453125 -29.84375 174.89453125 C-28.6171875 176.73046875 -28.6171875 176.73046875 -27.21875 179.26953125 C-23.94833687 184.93608866 -20.03935827 189.88961784 -15.84375 194.89453125 C-19.76828092 196.20270822 -22.06093548 195.00652639 -25.71875 193.51953125 C-26.71479248 193.11504761 -26.71479248 193.11504761 -27.73095703 192.70239258 C-42.22955997 186.52002807 -53.63402802 176.25647463 -61.84375 162.89453125 C-60.55493756 166.14567033 -59.26220238 169.39523566 -57.96875 172.64453125 C-57.60394531 173.56492187 -57.23914063 174.4853125 -56.86328125 175.43359375 C-56.50878906 176.32304687 -56.15429688 177.2125 -55.7890625 178.12890625 C-55.46437988 178.94584961 -55.13969727 179.76279297 -54.80517578 180.60449219 C-53.90280131 182.75387577 -52.91246204 184.82364177 -51.84375 186.89453125 C-60.21226452 184.96333559 -66.92663419 178.71504672 -71.84375 171.89453125 C-71.84375 171.23453125 -71.84375 170.57453125 -71.84375 169.89453125 C-72.50375 169.89453125 -73.16375 169.89453125 -73.84375 169.89453125 C-77.30875 162.96453125 -77.30875 162.96453125 -80.84375 155.89453125 C-80.32240898 161.92719161 -79.77444873 167.91146797 -78.84375 173.89453125 C-80.53802632 172.25008659 -82.19628741 170.58512114 -83.84375 168.89453125 C-84.58238281 168.1675 -84.58238281 168.1675 -85.3359375 167.42578125 C-91.28018484 161.14274261 -94.16726724 153.27694505 -95.84375 144.89453125 C-96.33875 151.32953125 -96.33875 151.32953125 -96.84375 157.89453125 C-102.59772184 152.14055941 -104.64732271 146.39724918 -104.99609375 138.40234375 C-104.96818522 133.17988533 -103.89386063 128.27648716 -102.71875 123.20703125 C-102.53054687 122.28341797 -102.34234375 121.35980469 -102.1484375 120.40820312 C-100.70037856 114.12272229 -99.03618485 111.65307196 -93.84375 107.89453125 C-94.12329633 105.0457145 -94.12329633 105.0457145 -94.84375 101.89453125 C-94.2349419 99.49632096 -93.4239958 97.25310667 -92.53515625 94.9453125 C-91.6840126 92.78143328 -91.6840126 92.78143328 -91.84375 89.89453125 C-90.85375 89.89453125 -89.86375 89.89453125 -88.84375 89.89453125 C-89.04299072 89.33822021 -89.24223145 88.78190918 -89.44750977 88.20874023 C-90.23977196 83.58159709 -87.52423622 79.17358033 -85.78125 74.95703125 C-85.39775391 73.96767578 -85.01425781 72.97832031 -84.61914062 71.95898438 C-82.23825778 66.12640975 -80.24972769 62.27786423 -74.84375 58.89453125 C-71.96875 59.08203125 -71.96875 59.08203125 -69.84375 59.89453125 C-68.33444817 56.50820615 -68.33444817 56.50820615 -67.84375 52.89453125 C-69.29007813 53.72597656 -69.29007813 53.72597656 -70.765625 54.57421875 C-72.04163361 55.30604722 -73.31767712 56.03781485 -74.59375 56.76953125 C-75.22796875 57.13433594 -75.8621875 57.49914062 -76.515625 57.875 C-79.58625368 59.63421435 -82.65226875 61.36326499 -85.84375 62.89453125 C-84.94309821 56.58996871 -82.85383081 51.41991987 -80.03125 45.76953125 C-79.69996094 45.10115234 -79.36867187 44.43277344 -79.02734375 43.74414062 C-76.66739619 39.13770452 -73.90591824 35.06506005 -70.84375 30.89453125 C-70.13700371 29.58200243 -69.44411728 28.25900234 -68.84375 26.89453125 C-68.18375 26.89453125 -67.52375 26.89453125 -66.84375 26.89453125 C-66.575625 26.13140625 -66.3075 25.36828125 -66.03125 24.58203125 C-64.89240495 22.00464507 -64.02958329 20.62498261 -61.84375 18.89453125 C-61.18375 18.89453125 -60.52375 18.89453125 -59.84375 18.89453125 C-59.59625 18.27578125 -59.34875 17.65703125 -59.09375 17.01953125 C-57.58651457 14.45723102 -56.60234226 13.91915123 -53.84375 12.89453125 C-52.17998804 12.54698986 -50.51352517 12.21192653 -48.84375 11.89453125 C-49.65779297 11.22357422 -49.65779297 11.22357422 -50.48828125 10.5390625 C-57.80365269 4.35724411 -57.80365269 4.35724411 -59.84375 -0.10546875 C-59.84375 -0.76546875 -59.84375 -1.42546875 -59.84375 -2.10546875 C-58.54566406 -1.945625 -57.24757812 -1.78578125 -55.91015625 -1.62109375 C-43.54381694 -0.25859807 -31.58324627 -0.68336612 -19.45703125 -3.44921875 C-11.77458573 -4.84451696 -6.75231335 -4.04852686 0 0 Z " fill="#393939" transform="translate(258.84375,130.10546875)"/>
<path d="M0 0 C0 0.99 0 1.98 0 3 C2.31 3 4.62 3 7 3 C7.495 3.99 7.495 3.99 8 5 C24.5 5 41 5 58 5 C58 5.66 58 6.32 58 7 C59.010625 6.67 60.02125 6.34 61.0625 6 C64.75479911 4.92998679 68.15248207 4.84295845 72 5 C72 5.66 72 6.32 72 7 C72.99 6.67 73.98 6.34 75 6 C77.22818441 5.93062938 79.45834524 5.91542916 81.6875 5.9375 C83.45673828 5.95103516 83.45673828 5.95103516 85.26171875 5.96484375 C86.16535156 5.97644531 87.06898438 5.98804688 88 6 C88.99 8.475 88.99 8.475 90 11 C89.18595703 11.39832031 89.18595703 11.39832031 88.35546875 11.8046875 C87.28232422 12.33449219 87.28232422 12.33449219 86.1875 12.875 C85.47980469 13.22304687 84.77210938 13.57109375 84.04296875 13.9296875 C81.78753582 15.0656486 81.78753582 15.0656486 79 17 C78.67 16.67 78.34 16.34 78 16 C77.38125 16.598125 76.7625 17.19625 76.125 17.8125 C72.53102387 20.32828329 69.32282942 21.22946597 65.109375 22.2890625 C62.81275418 22.78720125 62.81275418 22.78720125 62 25 C62.66 25 63.32 25 64 25 C64 25.99 64 26.98 64 28 C64.99 28.66 65.98 29.32 67 30 C63.89641197 31.03452934 61.74791979 31.10178935 58.5 31.0625 C57.5409375 31.05347656 56.581875 31.04445312 55.59375 31.03515625 C54.7378125 31.02355469 53.881875 31.01195312 53 31 C50.16032769 31 47.76264289 31.40267181 45 32 C45 32.33 45 32.66 45 33 C43.75283203 33.05607422 43.75283203 33.05607422 42.48046875 33.11328125 C40.85044922 33.21189453 40.85044922 33.21189453 39.1875 33.3125 C38.10855469 33.37050781 37.02960938 33.42851562 35.91796875 33.48828125 C32.65265566 33.77300627 32.65265566 33.77300627 30 37 C26.7 35.35 23.4 33.7 20 32 C23.99613521 35.71069698 26.37082652 37.59791618 32 38 C32 38.99 32 39.98 32 41 C32.72574219 41.27199219 33.45148438 41.54398438 34.19921875 41.82421875 C36.91695671 42.96513803 39.301433 44.27502926 41.8125 45.8125 C43.10414063 46.60333984 43.10414063 46.60333984 44.421875 47.41015625 C45.27265625 47.93480469 46.1234375 48.45945312 47 49 C47.78890625 49.47308594 48.5778125 49.94617188 49.390625 50.43359375 C50.10734375 50.86800781 50.8240625 51.30242187 51.5625 51.75 C52.20316406 52.13671875 52.84382813 52.5234375 53.50390625 52.921875 C55 54 55 54 56 56 C55.505 56.99 55.505 56.99 55 58 C55.70125 57.62875 56.4025 57.2575 57.125 56.875 C60.83746488 55.74511938 62.51368371 56.40842082 66 58 C67.6875 59.4375 67.6875 59.4375 69 61 C69.556875 61.556875 70.11375 62.11375 70.6875 62.6875 C71.120625 63.120625 71.55375 63.55375 72 64 C71.01 64.495 71.01 64.495 70 65 C67.3984375 63.78515625 67.3984375 63.78515625 64.375 62.0625 C63.37210937 61.49660156 62.36921875 60.93070312 61.3359375 60.34765625 C60.17964844 59.68056641 60.17964844 59.68056641 59 59 C59.5775 59.33773437 60.155 59.67546875 60.75 60.0234375 C61.4925 60.46945312 62.235 60.91546875 63 61.375 C63.7425 61.81585938 64.485 62.25671875 65.25 62.7109375 C65.8275 63.13632812 66.405 63.56171875 67 64 C67 64.66 67 65.32 67 66 C67.68835938 66.07734375 68.37671875 66.1546875 69.0859375 66.234375 C72.77633267 67.20396944 75.52509372 69.11575786 78.625 71.25 C84.50047418 75.17556582 90.4368884 78.33457304 97 81 C97 81.66 97 82.32 97 83 C97.71800781 83.1134375 98.43601562 83.226875 99.17578125 83.34375 C102.1557366 84.03618776 104.47881429 85.09033603 107.1875 86.5 C108.47720703 87.16515625 108.47720703 87.16515625 109.79296875 87.84375 C110.52128906 88.2253125 111.24960937 88.606875 112 89 C112.66 89.33 113.32 89.66 114 90 C114 90.99 114 91.98 114 93 C114.969375 92.9175 115.93875 92.835 116.9375 92.75 C121.05952894 92.74168946 124.06196554 94.13886497 127.71875 95.9296875 C129.93065546 96.96746506 132.11050674 97.70399125 134.4375 98.4375 C138 100 138 100 139.5 102.6875 C139.665 103.450625 139.83 104.21375 140 105 C130.73042819 106.58906945 121.37278868 106.15309128 112 106 C110.05867188 105.97486328 110.05867188 105.97486328 108.078125 105.94921875 C83.16488513 104.94465263 61.22856737 90.81884817 42.70703125 75.234375 C40.14017071 72.99694933 40.14017071 72.99694933 37.5625 71.5625 C34.04307584 69.41650966 31.07184453 66.73544657 28 64 C28.5053125 64.55429687 29.010625 65.10859375 29.53125 65.6796875 C30.1809375 66.40414062 30.830625 67.12859375 31.5 67.875 C32.1496875 68.59429687 32.799375 69.31359375 33.46875 70.0546875 C35 72 35 72 35 74 C35.66 74 36.32 74 37 74 C37 74.66 37 75.32 37 76 C37.556875 76.226875 38.11375 76.45375 38.6875 76.6875 C41.64691361 78.36716718 43.62408786 80.56751852 46 83 C47.96699166 84.71123624 49.97750749 86.35378517 52 88 C52.66 87.67 53.32 87.34 54 87 C58.81968263 91.15343238 63.55733291 95.39164991 68.25 99.6875 C68.75692383 100.15067627 69.26384766 100.61385254 69.78613281 101.09106445 C71.90920329 103.04001513 73.99726227 104.99716602 76 107.0703125 C78.41180185 109.39732444 81.01211765 111.25722051 83.75 113.1875 C85.51722334 114.43427144 87.27265774 115.69853695 89 117 C89 117.33 89 117.66 89 118 C82.6453872 118.17089098 76.95045174 117.67663783 70.75 116.3125 C69.92588623 116.13388428 69.10177246 115.95526855 68.25268555 115.77124023 C58.07963915 113.46553468 48.53873608 110.13037462 40 104 C39.33484375 103.525625 38.6696875 103.05125 37.984375 102.5625 C33.46641676 99.25162984 29.21420404 95.68742854 25 92 C25.66 93.65 26.32 95.3 27 97 C27.66 97 28.32 97 29 97 C30.2265625 98.8359375 30.2265625 98.8359375 31.625 101.375 C34.89541313 107.04155741 38.80439173 111.99508659 43 117 C39.07546908 118.30817697 36.78281452 117.11199514 33.125 115.625 C32.12895752 115.22051636 32.12895752 115.22051636 31.11279297 114.80786133 C16.61419003 108.62549682 5.20972198 98.36194338 -3 85 C-1.71118756 88.25113908 -0.41845238 91.50070441 0.875 94.75 C1.23980469 95.67039062 1.60460937 96.59078125 1.98046875 97.5390625 C2.51220703 98.87324219 2.51220703 98.87324219 3.0546875 100.234375 C3.54171143 101.45979004 3.54171143 101.45979004 4.03857422 102.70996094 C4.94094869 104.85934452 5.93128796 106.92911052 7 109 C-1.36851452 107.06880434 -8.08288419 100.82051547 -13 94 C-13 93.34 -13 92.68 -13 92 C-13.66 92 -14.32 92 -15 92 C-17.31 87.38 -19.62 82.76 -22 78 C-21.47865898 84.03266036 -20.93069873 90.01693672 -20 96 C-21.69427632 94.35555534 -23.35253741 92.69058989 -25 91 C-25.49242187 90.5153125 -25.98484375 90.030625 -26.4921875 89.53125 C-32.43643484 83.24821136 -35.32351724 75.3824138 -37 67 C-37.33 71.29 -37.66 75.58 -38 80 C-43.75397184 74.24602816 -45.80357271 68.50271793 -46.15234375 60.5078125 C-46.12443522 55.28535408 -45.05011063 50.38195591 -43.875 45.3125 C-43.68679687 44.38888672 -43.49859375 43.46527344 -43.3046875 42.51367188 C-41.85662856 36.22819104 -40.19243485 33.75854071 -35 30 C-35.27954633 27.15118325 -35.27954633 27.15118325 -36 24 C-35.3911919 21.60178971 -34.5802458 19.35857542 -33.69140625 17.05078125 C-32.8402626 14.88690203 -32.8402626 14.88690203 -33 12 C-32.01 12 -31.02 12 -30 12 C-30.33 10.68 -30.66 9.36 -31 8 C-30.45730469 7.86464844 -29.91460937 7.72929687 -29.35546875 7.58984375 C-28.57816406 7.39519531 -27.80085938 7.20054687 -27 7 C-26.08863281 6.77441406 -25.17726562 6.54882812 -24.23828125 6.31640625 C-23.27277344 6.06761719 -22.30726563 5.81882813 -21.3125 5.5625 C-20.33925781 5.31628906 -19.36601562 5.07007813 -18.36328125 4.81640625 C-15.83411152 4.2510393 -15.83411152 4.2510393 -15 2 C-13.33871537 1.64080332 -11.67099977 1.31088368 -10 1 C-9.0409375 0.443125 -9.0409375 0.443125 -8.0625 -0.125 C-5.15038483 -1.3604428 -3.01978513 -0.6863148 0 0 Z " fill="#303030" transform="translate(200,208)"/>
<path d="M0 0 C2.65402854 1.1010372 4.54751178 0.99130381 7.40625 0.83203125 C12.73323385 0.71047591 16.32645473 1.70745415 21.15625 3.89453125 C21.15625 4.55453125 21.15625 5.21453125 21.15625 5.89453125 C22.14625 6.22453125 23.13625 6.55453125 24.15625 6.89453125 C26.2209604 10.68894936 26.37497326 13.94262297 26.28125 18.20703125 C26.26320313 19.27566406 26.24515625 20.34429687 26.2265625 21.4453125 C26.20335937 22.25355469 26.18015625 23.06179687 26.15625 23.89453125 C25.49625 23.89453125 24.83625 23.89453125 24.15625 23.89453125 C24.15625 23.23453125 24.15625 22.57453125 24.15625 21.89453125 C18.52191322 19.48523573 13.2873389 19.66373294 7.28125 19.76953125 C6.30671875 19.77855469 5.3321875 19.78757813 4.328125 19.796875 C1.93724272 19.82031502 -0.45312261 19.85312683 -2.84375 19.89453125 C-2.34875 20.88453125 -2.34875 20.88453125 -1.84375 21.89453125 C0.18088255 22.54666417 0.18088255 22.54666417 2.15625 22.89453125 C2.15625 23.88453125 2.15625 24.87453125 2.15625 25.89453125 C1.49625 25.89453125 0.83625 25.89453125 0.15625 25.89453125 C-0.21113281 26.70470703 -0.21113281 26.70470703 -0.5859375 27.53125 C-2.14191449 30.45474714 -4.02988158 33.0216647 -5.96875 35.70703125 C-9.37067482 40.52163737 -12.393608 45.4365867 -15.15625 50.64453125 C-15.46900879 51.23339111 -15.78176758 51.82225098 -16.10400391 52.42895508 C-16.40612793 53.01056396 -16.70825195 53.59217285 -17.01953125 54.19140625 C-17.3326123 54.77929932 -17.64569336 55.36719238 -17.96826172 55.97290039 C-18.92074297 57.91247378 -18.92074297 57.91247378 -19.42626953 60.18920898 C-20.23705536 62.95858672 -20.97538049 64.67502842 -22.84375 66.89453125 C-27.74560828 69.1891809 -32.83785789 70.30865977 -38.09375 71.45703125 C-39.52166333 71.79797471 -40.94876331 72.14234384 -42.375 72.49023438 C-45.85605992 73.33148622 -49.34594491 74.1254585 -52.84375 74.89453125 C-50.1067581 74.35093514 -47.37248091 73.7968081 -44.64013672 73.23022461 C-15.57951634 67.23723182 -15.57951634 67.23723182 -1.11328125 67.81640625 C4.32462238 68.0133677 9.64074618 67.3208329 15.02294922 66.60449219 C19.78067211 65.98202809 24.35399949 65.72510235 29.15625 65.89453125 C29.48625 66.22453125 29.81625 66.55453125 30.15625 66.89453125 C30.48625 66.23453125 30.81625 65.57453125 31.15625 64.89453125 C31.94 65.10078125 32.72375 65.30703125 33.53125 65.51953125 C34.3975 65.64328125 35.26375 65.76703125 36.15625 65.89453125 C36.81625 65.23453125 37.47625 64.57453125 38.15625 63.89453125 C41.65625 63.76953125 41.65625 63.76953125 45.15625 63.89453125 C47.36706851 63.99994051 47.36706851 63.99994051 50.15625 62.89453125 C50.15625 63.55453125 50.15625 64.21453125 50.15625 64.89453125 C49.49625 64.89453125 48.83625 64.89453125 48.15625 64.89453125 C48.15625 65.55453125 48.15625 66.21453125 48.15625 66.89453125 C47.49625 66.89453125 46.83625 66.89453125 46.15625 66.89453125 C45.82625 67.88453125 45.49625 68.87453125 45.15625 69.89453125 C41.40628399 74.32630926 37.3596021 76.58336493 32.15625 78.89453125 C32.15625 79.55453125 32.15625 80.21453125 32.15625 80.89453125 C33.47625 80.89453125 34.79625 80.89453125 36.15625 80.89453125 C36.48625 82.87453125 36.81625 84.85453125 37.15625 86.89453125 C35.50625 86.89453125 33.85625 86.89453125 32.15625 86.89453125 C32.65125 84.91453125 32.65125 84.91453125 33.15625 82.89453125 C32.55039062 82.90613281 31.94453125 82.91773438 31.3203125 82.9296875 C30.48242188 82.93871094 29.64453125 82.94773437 28.78125 82.95703125 C27.96914063 82.96863281 27.15703125 82.98023438 26.3203125 82.9921875 C23.75600407 82.91304218 21.32707258 82.69347101 18.78515625 82.39453125 C12.4965599 81.75490618 6.24538615 81.76909302 -0.0703125 81.796875 C-1.29914154 81.79828995 -2.52797058 81.7997049 -3.79403687 81.80116272 C-7.68563358 81.80672166 -11.57717093 81.81926645 -15.46875 81.83203125 C-18.12109291 81.83705156 -20.77343674 81.84161353 -23.42578125 81.84570312 C-29.89845746 81.85667761 -36.37109949 81.87337441 -42.84375 81.89453125 C-42.84375 82.55453125 -42.84375 83.21453125 -42.84375 83.89453125 C-47.13375 83.89453125 -51.42375 83.89453125 -55.84375 83.89453125 C-53.86375 82.90453125 -53.86375 82.90453125 -51.84375 81.89453125 C-54.15375 81.56453125 -56.46375 81.23453125 -58.84375 80.89453125 C-58.84375 79.90453125 -58.84375 78.91453125 -58.84375 77.89453125 C-59.6275 78.05953125 -60.41125 78.22453125 -61.21875 78.39453125 C-63.84375 78.89453125 -63.84375 78.89453125 -65.84375 78.89453125 C-69.03427398 79.85910827 -72.04410233 80.98314863 -75.09375 82.33203125 C-79.53713738 84.28911873 -84.18027687 85.5714936 -88.84375 86.89453125 C-88.20623618 81.6702297 -86.61391367 77.17333773 -84.65625 72.33203125 C-84.37716797 71.59017578 -84.09808594 70.84832031 -83.81054688 70.08398438 C-81.71595437 64.89142945 -79.53018288 62.01881983 -74.84375 58.89453125 C-71.96875 59.08203125 -71.96875 59.08203125 -69.84375 59.89453125 C-68.33444817 56.50820615 -68.33444817 56.50820615 -67.84375 52.89453125 C-69.29007813 53.72597656 -69.29007813 53.72597656 -70.765625 54.57421875 C-72.04163361 55.30604722 -73.31767712 56.03781485 -74.59375 56.76953125 C-75.22796875 57.13433594 -75.8621875 57.49914062 -76.515625 57.875 C-79.58625368 59.63421435 -82.65226875 61.36326499 -85.84375 62.89453125 C-84.94309821 56.58996871 -82.85383081 51.41991987 -80.03125 45.76953125 C-79.53431641 44.76696289 -79.53431641 44.76696289 -79.02734375 43.74414062 C-76.66739619 39.13770452 -73.90591824 35.06506005 -70.84375 30.89453125 C-70.13700371 29.58200243 -69.44411728 28.25900234 -68.84375 26.89453125 C-68.18375 26.89453125 -67.52375 26.89453125 -66.84375 26.89453125 C-66.575625 26.13140625 -66.3075 25.36828125 -66.03125 24.58203125 C-64.89240495 22.00464507 -64.02958329 20.62498261 -61.84375 18.89453125 C-61.18375 18.89453125 -60.52375 18.89453125 -59.84375 18.89453125 C-59.59625 18.27578125 -59.34875 17.65703125 -59.09375 17.01953125 C-57.58651457 14.45723102 -56.60234226 13.91915123 -53.84375 12.89453125 C-52.17998804 12.54698986 -50.51352517 12.21192653 -48.84375 11.89453125 C-49.65779297 11.22357422 -49.65779297 11.22357422 -50.48828125 10.5390625 C-57.80365269 4.35724411 -57.80365269 4.35724411 -59.84375 -0.10546875 C-59.84375 -0.76546875 -59.84375 -1.42546875 -59.84375 -2.10546875 C-58.54566406 -1.945625 -57.24757812 -1.78578125 -55.91015625 -1.62109375 C-43.54381694 -0.25859807 -31.58324627 -0.68336612 -19.45703125 -3.44921875 C-11.77458573 -4.84451696 -6.75231335 -4.04852686 0 0 Z " fill="#333333" transform="translate(258.84375,130.10546875)"/>
<path d="M0 0 C0.5775 -0.144375 1.155 -0.28875 1.75 -0.4375 C5.24684186 -1.31171046 8.39254623 -1.17178351 12 -1 C12.99 -0.34 13.98 0.32 15 1 C17.04190673 1.54585626 19.08487996 1.94179262 21.16015625 2.33984375 C23 3 23 3 25 6 C25.99 5.67 26.98 5.34 28 5 C29.96679688 5.34204102 29.96679688 5.34204102 32.21875 6.00390625 C33.05784912 6.2467334 33.89694824 6.48956055 34.76147461 6.73974609 C36.11704468 7.14700928 36.11704468 7.14700928 37.5 7.5625 C38.44560791 7.83916504 39.39121582 8.11583008 40.36547852 8.40087891 C45.51342825 9.91870404 50.6338814 11.50908653 55.73925781 13.16381836 C92.86616596 25.17522256 129.99872104 32.52532478 169 34 C169 34.66 169 35.32 169 36 C129.803572 53.87274706 91.3184504 58.23413369 50 45 C47.4921875 43.84765625 47.4921875 43.84765625 46 43 C46 43.66 46 44.32 46 45 C46.83789062 45.24492187 47.67578125 45.48984375 48.5390625 45.7421875 C52.41325961 47.15019142 55.83418266 49.05013452 59.375 51.125 C73.04855423 58.97095127 87.30896497 66.25250183 102 72 C93.49082872 76.48519924 84.53386006 76.31671375 75.14355469 76.26074219 C73.00426899 76.25002139 70.86582275 76.26068629 68.7265625 76.2734375 C61.54719712 76.27969348 54.93554285 75.95062143 48 74 C51.46714994 72.97138994 54.11504829 73.2178086 57.69433594 73.73339844 C61.99286384 74.23043279 66.30320039 74.14341676 70.625 74.125 C71.54023438 74.12886719 72.45546875 74.13273437 73.3984375 74.13671875 C78.04605003 74.13000255 82.42882664 73.95675721 87 73 C86.49743888 70.98567734 86.49743888 70.98567734 85 69 C82.15518139 68.02097842 82.15518139 68.02097842 80.05859375 67.56640625 C77.72329223 66.92386598 75.68502848 65.97959051 73.5 64.9375 C70.43520184 63.50726086 68.51455325 62.93835597 65.0625 62.5 C64.051875 62.335 63.04125 62.17 62 62 C60.875 60.0625 60.875 60.0625 60 58 C57.70880581 56.93181309 57.70880581 56.93181309 55 56 C53.24869009 55.33678205 51.49866951 54.67014879 49.75 54 C48.87859375 53.67 48.0071875 53.34 47.109375 53 C45 52 45 52 44 50 C42.48543533 49.25469051 40.93601288 48.57986371 39.375 47.9375 C33.61928536 45.42220738 28.36665167 42.33769317 23.04052734 39.03491211 C20.37385471 37.38818027 17.98608905 35.99536302 15 35 C15 34.34 15 33.68 15 33 C14.2575 32.7525 13.515 32.505 12.75 32.25 C9.79875938 30.90852699 8.15185026 29.39094474 6 27 C10.49797113 28.68673918 14.72886302 30.81673892 19 33 C19 32.34 19 31.68 19 31 C16.525 30.01 16.525 30.01 14 29 C14 28.34 14 27.68 14 27 C12.741875 26.814375 11.48375 26.62875 10.1875 26.4375 C9.47980469 26.33308594 8.77210938 26.22867187 8.04296875 26.12109375 C5.7974658 25.86095201 5.7974658 25.86095201 3 27 C2.505 25.515 2.505 25.515 2 24 C-4.623823 18.26831552 -12.23055535 13.96737599 -20 10 C-20 9.01 -20 8.02 -20 7 C-22.64 7 -25.28 7 -28 7 C-28 6.34 -28 5.68 -28 5 C-29.96147874 3.61061923 -31.96166576 2.2739589 -34 1 C-31 0 -31 0 -28.51953125 0.99609375 C-27.62621094 1.47175781 -26.73289063 1.94742188 -25.8125 2.4375 C-24.91144531 2.91058594 -24.01039063 3.38367188 -23.08203125 3.87109375 C-22.39496094 4.24363281 -21.70789063 4.61617187 -21 5 C-20.34 4.01 -19.68 3.02 -19 2 C-16.5390625 1.55859375 -16.5390625 1.55859375 -13.625 1.4375 C-8.46808701 1.20814942 -4.890329 -1.37540503 0 0 Z " fill="#393939" transform="translate(252,239)"/>
<path d="M0 0 C2.65402854 1.1010372 4.54751178 0.99130381 7.40625 0.83203125 C12.73323385 0.71047591 16.32645473 1.70745415 21.15625 3.89453125 C21.15625 4.55453125 21.15625 5.21453125 21.15625 5.89453125 C22.14625 6.22453125 23.13625 6.55453125 24.15625 6.89453125 C26.2209604 10.68894936 26.37497326 13.94262297 26.28125 18.20703125 C26.26320313 19.27566406 26.24515625 20.34429687 26.2265625 21.4453125 C26.20335937 22.25355469 26.18015625 23.06179687 26.15625 23.89453125 C25.49625 23.89453125 24.83625 23.89453125 24.15625 23.89453125 C24.15625 23.23453125 24.15625 22.57453125 24.15625 21.89453125 C10.32913378 16.56980326 -3.76675465 20.30056459 -16.84375 25.89453125 C-21.60711713 28.03754575 -26.23877431 30.41076764 -30.85400391 32.85351562 C-33.57911292 34.27926591 -36.33526631 35.63875457 -39.09301758 37 C-49.88366947 42.33212192 -60.3314845 48.14303428 -70.68896484 54.27050781 C-75.69580682 57.23089798 -80.73697574 60.10901802 -85.84375 62.89453125 C-84.94309821 56.58996871 -82.85383081 51.41991987 -80.03125 45.76953125 C-79.53431641 44.76696289 -79.53431641 44.76696289 -79.02734375 43.74414062 C-76.66739619 39.13770452 -73.90591824 35.06506005 -70.84375 30.89453125 C-70.13700371 29.58200243 -69.44411728 28.25900234 -68.84375 26.89453125 C-68.18375 26.89453125 -67.52375 26.89453125 -66.84375 26.89453125 C-66.575625 26.13140625 -66.3075 25.36828125 -66.03125 24.58203125 C-64.89240495 22.00464507 -64.02958329 20.62498261 -61.84375 18.89453125 C-61.18375 18.89453125 -60.52375 18.89453125 -59.84375 18.89453125 C-59.59625 18.27578125 -59.34875 17.65703125 -59.09375 17.01953125 C-57.58651457 14.45723102 -56.60234226 13.91915123 -53.84375 12.89453125 C-52.17998804 12.54698986 -50.51352517 12.21192653 -48.84375 11.89453125 C-49.65779297 11.22357422 -49.65779297 11.22357422 -50.48828125 10.5390625 C-57.80365269 4.35724411 -57.80365269 4.35724411 -59.84375 -0.10546875 C-59.84375 -0.76546875 -59.84375 -1.42546875 -59.84375 -2.10546875 C-58.54566406 -1.945625 -57.24757812 -1.78578125 -55.91015625 -1.62109375 C-43.54381694 -0.25859807 -31.58324627 -0.68336612 -19.45703125 -3.44921875 C-11.77458573 -4.84451696 -6.75231335 -4.04852686 0 0 Z " fill="#3C3C3C" transform="translate(258.84375,130.10546875)"/>
<path d="M0 0 C-17.39636819 6.72215863 -34.81448318 11.89254715 -53 16 C-54.14919922 16.26409668 -55.29839844 16.52819336 -56.48242188 16.80029297 C-81.94512774 22.5928078 -107.75304525 25.95830286 -133.6875 28.8125 C-134.80842041 28.9364917 -135.92934082 29.0604834 -137.08422852 29.18823242 C-153.82859853 30.93407261 -153.82859853 30.93407261 -156.74487305 28.60864258 C-158 27 -158 27 -158 25 C-158.66 24.67 -159.32 24.34 -160 24 C-152.8038864 22.62944552 -145.61489131 21.47951855 -138.34765625 20.5625 C-137.36744003 20.43689697 -136.38722382 20.31129395 -135.37730408 20.18188477 C-133.3144628 19.91832594 -131.25143562 19.65621829 -129.18823242 19.39550781 C-126.10084725 19.00485219 -123.01426959 18.60824603 -119.92773438 18.2109375 C-110.45250608 17.00095525 -100.98249762 15.86652262 -91.47265625 14.96484375 C-83.03895642 14.1601821 -74.73098998 12.97742592 -66.375 11.5625 C-65.03280051 11.33949029 -63.69051387 11.11700456 -62.34814453 10.89501953 C-59.73674415 10.46233761 -57.12606255 10.0259159 -54.515625 9.58740234 C-51.50175542 9.08383497 -48.48643569 8.59331597 -45.46875 8.11328125 C-35.44666814 6.51139112 -25.59955253 4.48756685 -15.78515625 1.88671875 C-14.70258545 1.60429321 -14.70258545 1.60429321 -13.59814453 1.31616211 C-12.18920606 0.94697247 -10.78246244 0.56927052 -9.37841797 0.18188477 C-5.82815729 -0.74913388 -3.49586475 -1.06123612 0 0 Z " fill="#272727" transform="translate(478,160)"/>
<path d="M0 0 C2.65402854 1.1010372 4.54751178 0.99130381 7.40625 0.83203125 C12.73323385 0.71047591 16.32645473 1.70745415 21.15625 3.89453125 C21.15625 4.55453125 21.15625 5.21453125 21.15625 5.89453125 C22.14625 6.22453125 23.13625 6.55453125 24.15625 6.89453125 C26.61332063 11.16207497 26.31823604 15.11594305 26.15625 19.89453125 C25.66125 19.17265625 25.16625 18.45078125 24.65625 17.70703125 C19.56493778 11.97930501 14.48564112 9.4151182 6.84375 8.9375 C6.286875 8.92332031 5.73 8.90914062 5.15625 8.89453125 C4.66125 7.40953125 4.66125 7.40953125 4.15625 5.89453125 C1.68125 5.39953125 1.68125 5.39953125 -0.84375 4.89453125 C-1.50375 6.54453125 -2.16375 8.19453125 -2.84375 9.89453125 C-7.09199481 10.49659937 -11.34195432 11.08395072 -15.59399414 11.65844727 C-17.03659146 11.85537734 -18.47867152 12.05613978 -19.92016602 12.26098633 C-35.39902673 14.45538981 -35.39902673 14.45538981 -42.84375 12.89453125 C-43.84375 10.89453125 -43.84375 10.89453125 -43.84375 7.89453125 C-46.15375 7.89453125 -48.46375 7.89453125 -50.84375 7.89453125 C-51.17375 6.24453125 -51.50375 4.59453125 -51.84375 2.89453125 C-50.85375 2.89453125 -49.86375 2.89453125 -48.84375 2.89453125 C-48.84375 2.23453125 -48.84375 1.57453125 -48.84375 0.89453125 C-49.83375 0.56453125 -50.82375 0.23453125 -51.84375 -0.10546875 C-50.585625 -0.14285156 -49.3275 -0.18023437 -48.03125 -0.21875 C-38.26109693 -0.57261597 -28.97221366 -1.36094864 -19.421875 -3.484375 C-11.75104835 -4.81588312 -6.73848895 -4.04023808 0 0 Z " fill="#4C4C4C" transform="translate(258.84375,130.10546875)"/>
<path d="M0 0 C-4.51874814 6.18754242 -10.68213167 9.87705535 -17 14 C-18.04929687 14.68578125 -19.09859375 15.3715625 -20.1796875 16.078125 C-44.91193016 31.74393456 -73.38542853 42.4890008 -103 41 C-103 40.67 -103 40.34 -103 40 C-102.30664551 39.93530518 -101.61329102 39.87061035 -100.89892578 39.80395508 C-87.65052286 38.52817483 -74.94655368 36.96933835 -62.21875 32.98828125 C-59 32 -59 32 -57 32 C-57 31.34 -57 30.68 -57 30 C-52.64597519 27.51198583 -49.93132404 27 -45 27 C-41.66516956 25.95811161 -41.66516956 25.95811161 -39 24 C-38.03093173 21.41585574 -38.03093173 21.41585574 -38 19 C-36.35 18.67 -34.7 18.34 -33 18 C-33.495 19.485 -33.495 19.485 -34 21 C-33.01 21 -32.02 21 -31 21 C-31 20.01 -31 19.02 -31 18 C-26.5 16.5 -26.5 16.5 -22 15 C-22.185625 14.21625 -22.37125 13.4325 -22.5625 12.625 C-23 10 -23 10 -22 8 C-22.66 8 -23.32 8 -24 8 C-24 7.34 -24 6.68 -24 6 C-24.77448486 6.09087891 -25.54896973 6.18175781 -26.34692383 6.27539062 C-65.36540674 10.69803346 -103.94151815 9.29454629 -143 6 C-143 5.67 -143 5.34 -143 5 C-135.20125568 4.90666396 -127.47006989 4.906485 -119.6875 5.5 C-112.16381498 6.02299697 -104.66597419 6.11278213 -97.125 6.125 C-95.98377686 6.12951172 -94.84255371 6.13402344 -93.66674805 6.13867188 C-87.0495 6.12708554 -80.56812023 5.8156732 -74 5 C-74 5.33 -74 5.66 -74 6 C-52.6058773 6.61099208 -31.46452589 4.812716 -10.41479492 0.91479492 C-6.89182555 0.26494371 -3.58482162 -0.14505059 0 0 Z " fill="#626262" transform="translate(463,215)"/>
<path d="M0 0 C0.99 0.495 0.99 0.495 2 1 C-2.64294291 6.02251196 -7.30808381 11.02319516 -12 16 C-12.75095947 16.79833252 -12.75095947 16.79833252 -13.51708984 17.61279297 C-18.8061667 23.19602169 -24.36036672 28.28284628 -30.375 33.0625 C-30.95830078 33.52817383 -31.54160156 33.99384766 -32.14257812 34.47363281 C-35.29012306 36.91143722 -38.21370367 38.74499167 -42 40 C-41.21625 39.236875 -40.4325 38.47375 -39.625 37.6875 C-36.92742283 35.09108195 -36.92742283 35.09108195 -35 32 C-35.66 32 -36.32 32 -37 32 C-36.34 30.68 -35.68 29.36 -35 28 C-33.948125 28.0825 -32.89625 28.165 -31.8125 28.25 C-25.40483465 27.82982522 -22.30433141 23.4119397 -18 19 C-17.071875 18.195625 -16.14375 17.39125 -15.1875 16.5625 C-12.49911832 13.41325288 -12.8069573 12.00977261 -13 8 C-15.11144002 8.70782939 -17.21401599 9.44213683 -19.3125 10.1875 C-20.48425781 10.59355469 -21.65601563 10.99960938 -22.86328125 11.41796875 C-26.34557613 13.17429431 -27.3790111 14.51809243 -29 18 C-33.455 17.01 -33.455 17.01 -38 16 C-38.99 17.485 -38.99 17.485 -40 19 C-41.58489431 19 -43.17066711 18.98647676 -44.75390625 18.9140625 C-48.62017185 19.06198918 -52.24727257 20.22548372 -55.97265625 21.2109375 C-60.2826932 22.33432778 -64.62530861 23.17202169 -69 24 C-70.07765625 24.21398437 -71.1553125 24.42796875 -72.265625 24.6484375 C-91.70801942 28.43116277 -111.24951333 31.14709771 -130.9375 33.25 C-131.75478577 33.33885468 -132.57207153 33.42770935 -133.41412354 33.51925659 C-142.29611037 34.47748156 -151.05086403 35.31084525 -160 35 C-160 34.67 -160 34.34 -160 34 C-150.80771181 32.61533667 -141.62716423 31.51299655 -132.375 30.625 C-88.78401601 26.22593569 -39.78826311 19.89413156 0 0 Z M-12 9 C-11 11 -11 11 -11 11 Z " fill="#686868" transform="translate(485,156)"/>
<path d="M0 0 C-22.41878466 8.66287866 -45.14289966 14.43321325 -68.625 19.375 C-70.41115723 19.75144653 -70.41115723 19.75144653 -72.23339844 20.13549805 C-87.12319034 23.17555021 -87.12319034 23.17555021 -92 23 C-94 21 -94 21 -94.125 18.375 C-94.08375 17.59125 -94.0425 16.8075 -94 16 C-90.77112785 15.45656994 -87.54185997 14.91552326 -84.3125 14.375 C-83.2711792 14.2004126 -82.2298584 14.0258252 -81.15698242 13.84594727 C-74.31715679 12.70442423 -67.47334007 11.59297416 -60.625 10.50390625 C-58.16715772 10.1113592 -55.70935639 9.71855637 -53.2515564 9.32574463 C-51.6439248 9.06984471 -50.03603926 8.81553428 -48.42788696 8.56292725 C-35.22144891 6.48781416 -22.29492631 3.75378365 -9.40429688 0.1875 C-5.84547852 -0.74364772 -3.50519678 -1.06406903 0 0 Z " fill="#333333" transform="translate(478,160)"/>
<path d="M0 0 C0.66 0 1.32 0 2 0 C2 0.66 2 1.32 2 2 C9.66103423 3.96691062 17.18222564 4.61389236 25.0625 5.125 C26.93325195 5.25455078 26.93325195 5.25455078 28.84179688 5.38671875 C31.89417099 5.59722731 34.94682561 5.80149739 38 6 C37.67 6.66 37.34 7.32 37 8 C38.06476563 8.26167969 39.12953125 8.52335937 40.2265625 8.79296875 C43.75317048 9.67346118 47.26419765 10.6035263 50.7734375 11.55078125 C66.40756963 15.73991625 82.06480989 19.1689757 98 22 C98 22.33 98 22.66 98 23 C90.99096868 23.15319254 84.20230541 22.75871737 77.25 21.875 C76.23212402 21.74593262 75.21424805 21.61686523 74.16552734 21.48388672 C54.49651658 18.84028188 34.98812717 14.77375408 16 9 C14.15652045 8.45091411 12.31275453 7.90278902 10.46875 7.35546875 C5.64121209 5.91865179 0.81938267 4.46392522 -4 3 C-2.68 2.67 -1.36 2.34 0 2 C0 1.34 0 0.68 0 0 Z " fill="#282828" transform="translate(312,250)"/>
<path d="M0 0 C0.66 0.33 1.32 0.66 2 1 C1.86722656 1.77601563 1.73445313 2.55203125 1.59765625 3.3515625 C0.25621992 11.55684459 -0.52720483 19.70120055 -1 28 C-2.60256108 28.50512244 -4.20711792 29.00391627 -5.8125 29.5 C-6.70582031 29.7784375 -7.59914062 30.056875 -8.51953125 30.34375 C-11 31 -11 31 -14 31 C-14 31.99 -14 32.98 -14 34 C-14.81678223 34.14099121 -15.63356445 34.28198242 -16.47509766 34.42724609 C-19.52848931 34.95659313 -22.58111729 35.49010134 -25.63330078 36.02636719 C-27.59482339 36.3697178 -29.55717287 36.70833374 -31.51953125 37.046875 C-32.76347656 37.26601562 -34.00742188 37.48515625 -35.2890625 37.7109375 C-36.43068848 37.90993652 -37.57231445 38.10893555 -38.74853516 38.31396484 C-41.94052713 38.98745166 -44.91146669 39.96247572 -48 41 C-50.875 41.125 -50.875 41.125 -53 41 C-50.03607968 39.02405312 -47.91833264 38.27965588 -44.51953125 37.34375 C-43.43736328 37.04339844 -42.35519531 36.74304688 -41.24023438 36.43359375 C-40.10908203 36.12550781 -38.97792969 35.81742188 -37.8125 35.5 C-36.70068359 35.19191406 -35.58886719 34.88382813 -34.44335938 34.56640625 C-33.35474609 34.26605469 -32.26613281 33.96570313 -31.14453125 33.65625 C-30.08758057 33.36057129 -29.03062988 33.06489258 -27.94165039 32.76025391 C-25 32 -25 32 -22.54077148 31.59521484 C-20.15992665 31.2646405 -20.15992665 31.2646405 -17 30 C-15.34598553 27.37984098 -14.41575868 25.4794614 -13.4375 22.625 C-12.87432704 21.17740292 -12.30522659 19.73209906 -11.73046875 18.2890625 C-11.44864746 17.56879883 -11.16682617 16.84853516 -10.87646484 16.10644531 C-9.55185333 12.92295001 -7.95657386 9.99813186 -6.25 7 C-5.69828125 6.030625 -5.1465625 5.06125 -4.578125 4.0625 C-4.05734375 3.381875 -3.5365625 2.70125 -3 2 C-2.01 2 -1.02 2 0 2 C0 1.34 0 0.68 0 0 Z " fill="#292929" transform="translate(253,166)"/>
<path d="M0 0 C4.875 1.75 4.875 1.75 6 4 C7.86157105 4.27874834 7.86157105 4.27874834 10.0625 4.3125 C15.33555351 4.79950176 18.96913695 6.59696889 23 10 C26.07102137 13.76200117 27 15.1012525 27 20 C26.34 20 25.68 20 25 20 C25 19.34 25 18.68 25 18 C19.36566322 15.59070448 14.1310889 15.76920169 8.125 15.875 C7.15046875 15.88402344 6.1759375 15.89304688 5.171875 15.90234375 C2.78099272 15.92578377 0.39062739 15.95859558 -2 16 C-2.33 14.68 -2.66 13.36 -3 12 C-3.99 12.33 -4.98 12.66 -6 13 C-5.34 11.68 -4.68 10.36 -4 9 C-5.32 8.67 -6.64 8.34 -8 8 C-8 7.34 -8 6.68 -8 6 C-6.02 6 -4.04 6 -2 6 C-1.855625 5.195625 -1.71125 4.39125 -1.5625 3.5625 C-1 1 -1 1 0 0 Z " fill="#333333" transform="translate(258,134)"/>
<path d="M0 0 C0 0.33 0 0.66 0 1 C-24.61950644 4.99093934 -48.03295661 7.36666467 -73 7 C-61.18051372 0.8978689 -49.03719379 0.66687257 -36.05859375 0.92578125 C-28.89704242 1.06213625 -21.77546035 0.71600568 -14.62475586 0.35473633 C-9.74088124 0.11043295 -4.89016929 -0.05373812 0 0 Z " fill="#1F1F1F" transform="translate(458,215)"/>
<path d="M0 0 C7.85631488 0.5867429 15.63267523 1.43933426 23.4375 2.5 C34.61622967 3.96804791 45.73570896 4.65972454 57 5 C57 5.66 57 6.32 57 7 C18.62757611 24.49701852 18.62757611 24.49701852 -1 23 C-1 22.67 -1 22.34 -1 22 C9.395 20.515 9.395 20.515 20 19 C20.33 18.01 20.66 17.02 21 16 C21.56332031 16.18175781 22.12664062 16.36351562 22.70703125 16.55078125 C25.34109125 17.06682367 27.08207328 16.78610217 29.6875 16.1875 C30.47511719 16.01605469 31.26273437 15.84460938 32.07421875 15.66796875 C34.20017039 15.18172961 34.20017039 15.18172961 35 13 C36.33333333 12.33333333 37.66666667 11.66666667 39 11 C39.33 10.34 39.66 9.68 40 9 C40.66 9 41.32 9 42 9 C42 8.34 42 7.68 42 7 C41.40050537 6.98018066 40.80101074 6.96036133 40.18334961 6.93994141 C37.43433529 6.84394997 34.68600507 6.73457495 31.9375 6.625 C30.99455078 6.5940625 30.05160156 6.563125 29.08007812 6.53125 C23.72922423 6.30752092 19.12946546 5.66096977 14 4 C11.52547896 3.43749157 9.04621817 2.89539809 6.5625 2.375 C5.32628906 2.11460937 4.09007812 1.85421875 2.81640625 1.5859375 C1.88699219 1.39257812 0.95757812 1.19921875 0 1 C0 0.67 0 0.34 0 0 Z " fill="#757575" transform="translate(364,268)"/>
<path d="M0 0 C0.66 0.33 1.32 0.66 2 1 C-2.64294291 6.02251196 -7.30808381 11.02319516 -12 16 C-12.50063965 16.53222168 -13.0012793 17.06444336 -13.51708984 17.61279297 C-18.8061667 23.19602169 -24.36036672 28.28284628 -30.375 33.0625 C-31.24995117 33.76101074 -31.24995117 33.76101074 -32.14257812 34.47363281 C-35.29012306 36.91143722 -38.21370367 38.74499167 -42 40 C-41.21625 39.236875 -40.4325 38.47375 -39.625 37.6875 C-36.92742283 35.09108195 -36.92742283 35.09108195 -35 32 C-35.66 32 -36.32 32 -37 32 C-36.34 30.68 -35.68 29.36 -35 28 C-33.4221875 28.12375 -33.4221875 28.12375 -31.8125 28.25 C-25.40483465 27.82982522 -22.30433141 23.4119397 -18 19 C-17.071875 18.195625 -16.14375 17.39125 -15.1875 16.5625 C-12.49911832 13.41325288 -12.8069573 12.00977261 -13 8 C-13.86882812 8.3609375 -14.73765625 8.721875 -15.6328125 9.09375 C-16.78523438 9.5578125 -17.93765625 10.021875 -19.125 10.5 C-20.26195312 10.9640625 -21.39890625 11.428125 -22.5703125 11.90625 C-25.9471645 12.98315041 -28.48614728 13.21360807 -32 13 C-28.96916696 10.97944464 -26.28513638 9.89728324 -22.87109375 8.65234375 C-21.67162109 8.21212891 -20.47214844 7.77191406 -19.23632812 7.31835938 C-17.97012344 6.85787666 -16.70384655 6.39759243 -15.4375 5.9375 C-12.95640942 5.03163476 -10.47621086 4.12337509 -7.99609375 3.21484375 C-6.89450928 2.81386475 -5.7929248 2.41288574 -4.65795898 1.99975586 C-2.07450822 1.08045996 -2.07450822 1.08045996 0 0 Z M-12 9 C-11 11 -11 11 -11 11 Z " fill="#8B8B8B" transform="translate(485,156)"/>
<path d="M0 0 C4.91963469 0.65270401 8.99641983 2.72909987 13.4375 4.8125 C20.17042548 7.89751334 26.6803443 10.25279385 33.8515625 12.125 C38.38845714 13.38587394 42.68407624 15.13042934 47 17 C38.49082872 21.48519924 29.53386006 21.31671375 20.14355469 21.26074219 C18.00426899 21.25002139 15.86582275 21.26068629 13.7265625 21.2734375 C6.54719712 21.27969348 -0.06445715 20.95062143 -7 19 C-3.53285006 17.97138994 -0.88495171 18.2178086 2.69433594 18.73339844 C6.99286384 19.23043279 11.30320039 19.14341676 15.625 19.125 C16.99785156 19.13080078 16.99785156 19.13080078 18.3984375 19.13671875 C23.04605003 19.13000255 27.42882664 18.95675721 32 18 C31.49743888 15.98567734 31.49743888 15.98567734 30 14 C27.15518139 13.02097842 27.15518139 13.02097842 25.05859375 12.56640625 C22.72329223 11.92386598 20.68502848 10.97959051 18.5 9.9375 C15.43520184 8.50726086 13.51455325 7.93835597 10.0625 7.5 C8.5465625 7.2525 8.5465625 7.2525 7 7 C5.875 5.0625 5.875 5.0625 5 3 C2.46229997 1.71745356 2.46229997 1.71745356 0 1 C0 0.67 0 0.34 0 0 Z " fill="#5F5F5F" transform="translate(307,294)"/>
<path d="M0 0 C0.66 0.99 1.32 1.98 2 3 C1.60167969 3.42410156 1.20335937 3.84820312 0.79296875 4.28515625 C-2.85601217 8.32478233 -5.38366047 11.77066623 -7 17 C-6.79653753 20.32224191 -6.79653753 20.32224191 -6 23 C-6.66 23 -7.32 23 -8 23 C-7.67 23.66 -7.34 24.32 -7 25 C-3.75150023 23.27773504 -3.75150023 23.27773504 -3 20 C-2.01 20 -1.02 20 0 20 C0.33 18.68 0.66 17.36 1 16 C5.02040985 15.30415983 8.08263419 14.8299903 12 16 C3.44969123 21.97164422 -5.60451658 27.45305 -15 32 C-14.09934821 25.69543746 -12.01008081 20.52538862 -9.1875 14.875 C-8.85621094 14.20662109 -8.52492187 13.53824219 -8.18359375 12.84960938 C-5.82571094 8.24720351 -3.08697471 4.14829062 0 0 Z " fill="#6C6C6C" transform="translate(188,161)"/>
<path d="M0 0 C-23.78045621 8.90929768 -23.78045621 8.90929768 -35.8125 12.1875 C-36.58698486 12.40752686 -37.36146973 12.62755371 -38.15942383 12.85424805 C-43.38771629 14.21081927 -43.38771629 14.21081927 -46.37109375 13.18359375 C-46.90863281 12.79300781 -47.44617188 12.40242187 -48 12 C-48.7425 11.62875 -49.485 11.2575 -50.25 10.875 C-51.11625 10.441875 -51.11625 10.441875 -52 10 C-49.88713748 7.88713748 -45.66802246 8.07449187 -42.75 7.625 C-33.63582415 6.16095818 -24.71049469 4.25196353 -15.78515625 1.88671875 C-15.06344238 1.69843506 -14.34172852 1.51015137 -13.59814453 1.31616211 C-12.18920606 0.94697247 -10.78246244 0.56927052 -9.37841797 0.18188477 C-5.82815729 -0.74913388 -3.49586475 -1.06123612 0 0 Z " fill="#3C3C3C" transform="translate(478,160)"/>
<path d="M0 0 C2.33327222 2.14543647 3.80481335 4.2034808 5.26171875 7.01171875 C5.85629883 8.14770508 5.85629883 8.14770508 6.46289062 9.30664062 C6.86701172 10.09232422 7.27113281 10.87800781 7.6875 11.6875 C8.10322266 12.48478516 8.51894531 13.28207031 8.94726562 14.10351562 C9.96987975 16.06646457 10.9872368 18.03195562 12 20 C11.34 20.33 10.68 20.66 10 21 C2.40417398 16.1843456 -3.33515676 10.95966455 -9 4 C-8.67 3.34 -8.34 2.68 -8 2 C-5.36 2 -2.72 2 0 2 C0 1.34 0 0.68 0 0 Z " fill="#404040" transform="translate(195,296)"/>
<path d="M0 0 C1.0066571 -0.0033284 2.01331421 -0.0066568 3.05047607 -0.01008606 C5.17850288 -0.01513068 7.30653753 -0.01749515 9.43457031 -0.01733398 C12.62058364 -0.01949644 15.80623639 -0.03761191 18.9921875 -0.05664062 C31.92790976 -0.09096789 44.58219651 0.58939307 57.421875 2.16796875 C57.421875 2.49796875 57.421875 2.82796875 57.421875 3.16796875 C47.521875 3.66296875 47.521875 3.66296875 37.421875 4.16796875 C37.421875 3.50796875 37.421875 2.84796875 37.421875 2.16796875 C33.08003298 2.35261241 33.08003298 2.35261241 29.421875 4.16796875 C27.42229136 4.20877658 25.42142246 4.21051231 23.421875 4.16796875 C23.421875 3.50796875 23.421875 2.84796875 23.421875 2.16796875 C22.36613281 2.22126343 22.36613281 2.22126343 21.2890625 2.27563477 C7.9209642 2.92898748 -5.23887231 3.4777141 -18.578125 2.16796875 C-18.578125 1.83796875 -18.578125 1.50796875 -18.578125 1.16796875 C-12.35080351 0.25499861 -6.2893171 0.00739912 0 0 Z " fill="#4C4C4C" transform="translate(234.578125,210.83203125)"/>
<path d="M0 0 C7.79874432 -0.09333604 15.52993011 -0.093515 23.3125 0.5 C30.83618502 1.02299697 38.33402581 1.11278213 45.875 1.125 C47.01622314 1.12951172 48.15744629 1.13402344 49.33325195 1.13867188 C55.9505 1.12708554 62.43187977 0.8156732 69 0 C69 0.33 69 0.66 69 1 C74.61 1.66 80.22 2.32 86 3 C86 3.33 86 3.66 86 4 C57.17858625 4.42026289 28.72239251 3.42270685 0 1 C0 0.67 0 0.34 0 0 Z " fill="#555555" transform="translate(320,220)"/>
<path d="M0 0 C4.1193392 2.22444317 7.60335642 4.4340572 11.14453125 7.51953125 C14.5858512 10.26534232 18.33338632 12.5809264 22.0078125 15 C25.77030261 17.5148759 29.54780192 20.06563163 33 23 C33 23.33 33 23.66 33 24 C26.37200795 24.20044331 20.46537661 23.54718113 14 22.125 C13.14277344 21.95097656 12.28554688 21.77695312 11.40234375 21.59765625 C6.71895858 20.59566418 6.71895858 20.59566418 5 20 C4.67 19.34 4.34 18.68 4 18 C5.75029762 18.31082872 7.50022694 18.62373179 9.25 18.9375 C10.71179688 19.19853516 10.71179688 19.19853516 12.203125 19.46484375 C13.8541035 19.78074327 15.50003708 20.13236276 17.125 20.5625 C20.07041681 21.24976392 22.99102714 21.05786486 26 21 C25.21625 20.690625 24.4325 20.38125 23.625 20.0625 C20.28770874 18.71169163 18.51322049 17.51322049 16 15 C13.12727375 12.56923163 10.44571348 10.53142821 7 9 C7 8.34 7 7.68 7 7 C4.66057656 5.2463436 4.66057656 5.2463436 2 4 C1.01 4.495 1.01 4.495 0 5 C0 3.35 0 1.7 0 0 Z " fill="#505050" transform="translate(256,302)"/>
<path d="M0 0 C9.31477599 0.98767661 18.56979313 3.26552168 27.75 5.125 C29.1405883 5.40513018 30.53121311 5.68507914 31.921875 5.96484375 C35.28167209 6.64114795 38.64097357 7.31987712 42 8 C42 8.33 42 8.66 42 9 C34.49255767 9.20631139 27.25299447 8.59408131 19.8125 7.625 C18.77158203 7.49867188 17.73066406 7.37234375 16.65820312 7.2421875 C6.03147962 5.89276229 6.03147962 5.89276229 1 4 C0.34 3.01 -0.32 2.02 -1 1 C-0.67 0.67 -0.34 0.34 0 0 Z " fill="#474747" transform="translate(368,264)"/>
<path d="M0 0 C-1.32 1.32 -2.64 2.64 -4 4 C-4 3.34 -4 2.68 -4 2 C-9.3086849 2.58174845 -9.3086849 2.58174845 -14 5 C-14 4.34 -14 3.68 -14 3 C-15.32 3 -16.64 3 -18 3 C-18.33 3.99 -18.66 4.98 -19 6 C-19.495 5.01 -19.495 5.01 -20 4 C-21.13953125 4.14308594 -22.2790625 4.28617188 -23.453125 4.43359375 C-24.96873145 4.62254469 -26.4843573 4.81134003 -28 5 C-28.71091797 5.08910645 -29.42183594 5.17821289 -30.15429688 5.27001953 C-39.46967888 6.42276621 -48.59263565 7.33202462 -58 7 C-50.05833296 1.70555531 -36.28890086 2.4444148 -26.76635742 1.56738281 C-24.67113801 1.37348582 -22.57681147 1.17139358 -20.48242188 0.96875 C-13.63376263 0.3207687 -6.88196704 -0.16803915 0 0 Z " fill="#535353" transform="translate(308,192)"/>
<path d="M0 0 C0.9075 0.309375 1.815 0.61875 2.75 0.9375 C4.35875 1.4634375 4.35875 1.4634375 6 2 C6.680625 2.226875 7.36125 2.45375 8.0625 2.6875 C10.07860934 3.15434206 10.07860934 3.15434206 12.29296875 2.3359375 C15.92227253 1.88554771 17.21331239 2.9549768 20.25 4.9375 C25.43988607 8.15522936 30.70882 10.87241761 36.25 13.4375 C37.01344727 13.79126709 37.77689453 14.14503418 38.56347656 14.50952148 C40.37359655 15.34415121 42.1864956 16.17274977 44 17 C40.56875495 18.19356147 38.76992758 17.82479528 35.4453125 16.453125 C34.15173828 15.9271875 34.15173828 15.9271875 32.83203125 15.390625 C31.93871094 15.01421875 31.04539062 14.6378125 30.125 14.25 C28.79662109 13.70859375 28.79662109 13.70859375 27.44140625 13.15625 C23.76601511 11.64446467 20.17302031 10.08701021 16.62109375 8.30078125 C14.33452333 7.1660153 12.41626939 6.46175718 9.9375 5.9375 C6.81108722 5.20680583 3.87394462 4.48051692 1 3 C0.67 2.01 0.34 1.02 0 0 Z " fill="#434343" transform="translate(296,288)"/>
<path d="M0 0 C9.41002278 -0.3690205 9.41002278 -0.3690205 14 2 C14 2.66 14 3.32 14 4 C14.99 4.33 15.98 4.66 17 5 C19.45707063 9.26754372 19.16198604 13.2214118 19 18 C18.505 17.278125 18.01 16.55625 17.5 15.8125 C13.47243542 11.28148985 8.40177931 8.64060194 3 6 C4.32 5.67 5.64 5.34 7 5 C5.33045181 1.77595022 5.33045181 1.77595022 2.375 1.3125 C1.59125 1.209375 0.8075 1.10625 0 1 C0 0.67 0 0.34 0 0 Z " fill="#636363" transform="translate(266,132)"/>
<path d="M0 0 C0.80050781 0.22042969 1.60101563 0.44085938 2.42578125 0.66796875 C3.23402344 0.88066406 4.04226563 1.09335937 4.875 1.3125 C5.79732422 1.58126953 5.79732422 1.58126953 6.73828125 1.85546875 C6.73828125 2.84546875 6.73828125 3.83546875 6.73828125 4.85546875 C7.62515625 5.12359375 8.51203125 5.39171875 9.42578125 5.66796875 C12.52924785 6.78053225 15.0493881 7.95742653 17.73828125 9.85546875 C17.73828125 10.51546875 17.73828125 11.17546875 17.73828125 11.85546875 C14.15122309 13.11059618 12.78535949 12.87447614 9.1875 11.421875 C7.92614388 10.76808308 6.67229392 10.09963531 5.42578125 9.41796875 C4.45801758 8.91040039 4.45801758 8.91040039 3.47070312 8.39257812 C1.88655927 7.5594358 0.31146843 6.70911971 -1.26171875 5.85546875 C-1.26171875 5.19546875 -1.26171875 4.53546875 -1.26171875 3.85546875 C-2.58171875 3.52546875 -3.90171875 3.19546875 -5.26171875 2.85546875 C-2.89519796 -0.18501265 -2.89519796 -0.18501265 0 0 Z " fill="#2E2E2E" transform="translate(291.26171875,279.14453125)"/>
<path d="M0 0 C-2 3 -2 3 -4.81640625 3.625 C-6.05261719 3.74875 -7.28882813 3.8725 -8.5625 4 C-10.01572985 4.15265091 -11.46884773 4.30637014 -12.921875 4.4609375 C-14.1294043 4.5842041 -14.1294043 4.5842041 -15.36132812 4.70996094 C-18.23224741 5.02552831 -21.09095297 5.40225778 -23.953125 5.7890625 C-36.72032254 7.48588083 -49.12308694 8.4143941 -62 8 C-62 7.67 -62 7.34 -62 7 C-61.1970752 6.93006836 -60.39415039 6.86013672 -59.56689453 6.78808594 C-43.99432841 5.41084491 -28.54580993 3.83519786 -13.11376953 1.27050781 C-12.11458496 1.10518555 -11.11540039 0.93986328 -10.0859375 0.76953125 C-9.2201709 0.62104736 -8.3544043 0.47256348 -7.46240234 0.31958008 C-4.94655007 -0.00693694 -2.53396564 -0.05585044 0 0 Z " fill="#6F6F6F" transform="translate(463,215)"/>
<path d="M0 0 C2.97 0.33 5.94 0.66 9 1 C8.4453125 3.30859375 8.4453125 3.30859375 7 6 C4.56193187 7.29199371 2.45993364 8.19872267 -0.125 9.0625 C-0.82915039 9.31217529 -1.53330078 9.56185059 -2.25878906 9.8190918 C-9.71012649 12.38740755 -17.32448816 14.24328074 -25 16 C-25.6909375 16.19851563 -26.381875 16.39703125 -27.09375 16.6015625 C-29.66966346 17.13997064 -32.12207468 17.09378483 -34.75 17.0625 C-35.73484375 17.05347656 -36.7196875 17.04445313 -37.734375 17.03515625 C-38.48203125 17.02355469 -39.2296875 17.01195312 -40 17 C-40 16.67 -40 16.34 -40 16 C-29.605 14.515 -29.605 14.515 -19 13 C-18.67 12.01 -18.34 11.02 -18 10 C-17.43667969 10.18175781 -16.87335938 10.36351562 -16.29296875 10.55078125 C-13.65890875 11.06682367 -11.91792672 10.78610217 -9.3125 10.1875 C-8.52488281 10.01605469 -7.73726563 9.84460938 -6.92578125 9.66796875 C-4.79982961 9.18172961 -4.79982961 9.18172961 -4 7 C-2.66666667 6.33333333 -1.33333333 5.66666667 0 5 C0.33 4.34 0.66 3.68 1 3 C1.66 3 2.32 3 3 3 C3 2.34 3 1.68 3 1 C2.01 0.67 1.02 0.34 0 0 Z " fill="#656565" transform="translate(403,274)"/>
<path d="M0 0 C9.09191823 0.38682856 17.63396294 1.79703812 26.46850586 3.95629883 C28.45785882 4.44247548 30.4501311 4.91475417 32.44335938 5.38476562 C38.05102823 6.72505232 43.54837947 8.11165144 49 10 C49 10.66 49 11.32 49 12 C47.68 12.33 46.36 12.66 45 13 C45 12.34 45 11.68 45 11 C36.67257694 8.80319514 28.60640851 6.71720071 20 6 C18.661342 5.68873861 17.32614396 5.36087546 16 5 C16 5.66 16 6.32 16 7 C15.01 7 14.02 7 13 7 C12.34 6.01 11.68 5.02 11 4 C8.35952748 2.98247445 8.35952748 2.98247445 5.375 2.3125 C4.37210938 2.06113281 3.36921875 1.80976563 2.3359375 1.55078125 C1.56507813 1.36902344 0.79421875 1.18726563 0 1 C0 0.67 0 0.34 0 0 Z " fill="#464646" transform="translate(211,223)"/>
<path d="M0 0 C7.5157796 4.41143585 11.95923418 11.07275039 17 18 C13.01508155 19.32830615 11.59951452 18.23204404 7.8125 16.5625 C6.72582031 16.08941406 5.63914063 15.61632812 4.51953125 15.12890625 C3.68808594 14.75636719 2.85664063 14.38382812 2 14 C3.32 13.67 4.64 13.34 6 13 C6 11.35 6 9.7 6 8 C5.34 8 4.68 8 4 8 C3.67 6.68 3.34 5.36 3 4 C2.01 4.33 1.02 4.66 0 5 C-0.33 4.01 -0.66 3.02 -1 2 C-0.67 1.34 -0.34 0.68 0 0 Z " fill="#4B4B4B" transform="translate(226,307)"/>
<path d="M0 0 C0.66 0.33 1.32 0.66 2 1 C1.05002735 3.40835085 0.52239385 4.7235754 -1.80908203 5.95727539 C-2.53466309 6.16860107 -3.26024414 6.37992676 -4.0078125 6.59765625 C-5.22839355 6.96189697 -5.22839355 6.96189697 -6.47363281 7.33349609 C-7.34858398 7.57406738 -8.22353516 7.81463867 -9.125 8.0625 C-10.02573242 8.31854004 -10.92646484 8.57458008 -11.85449219 8.83837891 C-25.31755033 12.57653096 -38.0136914 14.50216799 -52 14 C-52 13.67 -52 13.34 -52 13 C-50.95996826 12.90295776 -50.95996826 12.90295776 -49.89892578 12.80395508 C-36.65052286 11.52817483 -23.94655368 9.96933835 -11.21875 5.98828125 C-8 5 -8 5 -6 5 C-6 4.34 -6 3.68 -6 3 C-4.03533587 1.93224776 -2.03144641 0.93446535 0 0 Z " fill="#4D4D4D" transform="translate(412,242)"/>
<path d="M0 0 C1.9375 1.0625 1.9375 1.0625 4 3 C4.87026597 7.0612412 5 10.86653235 5 15 C1.71303767 15.79953138 0.28976808 16.09658936 -3 15 C-3 14.34 -3 13.68 -3 13 C-2.01 13 -1.02 13 0 13 C-0.99 10.36 -1.98 7.72 -3 5 C-3.99 5.495 -3.99 5.495 -5 6 C-5 5.01 -5 4.02 -5 3 C-2.5 1.3125 -2.5 1.3125 0 0 Z " fill="#2A2A2A" transform="translate(180,232)"/>
<path d="M0 0 C5.66317496 0.57774543 10.8088037 1.67694258 16.25 3.3125 C26.05082627 6.15813646 35.97461136 8.1267802 46 10 C42.95517101 11.62985572 41.42535341 12.21144391 38 11.5625 C35.03550346 11.08685317 32.87740087 10.92097467 30 12 C30 11.34 30 10.68 30 10 C29.40050537 9.82871582 28.80101074 9.65743164 28.18334961 9.48095703 C14.27734375 5.5078125 14.27734375 5.5078125 11.53857422 4.71972656 C9.9711974 4.27535006 8.40042571 3.84253605 6.82470703 3.42871094 C2.20447531 2.20447531 2.20447531 2.20447531 0 0 Z " fill="#565656" transform="translate(320,257)"/>
<path d="M0 0 C0 0.33 0 0.66 0 1 C-4.18613079 1.67545765 -8.37409696 2.33879077 -12.5625 3 C-13.74392578 3.19078125 -14.92535156 3.3815625 -16.14257812 3.578125 C-31.41705322 5.97412109 -31.41705322 5.97412109 -35.4375 3.5 C-35.953125 3.005 -36.46875 2.51 -37 2 C-30.84504413 0.97129249 -24.73047181 0.68081548 -18.5 0.4375 C-17.49324219 0.39431641 -16.48648437 0.35113281 -15.44921875 0.30664062 C-10.29485068 0.09384561 -5.15863273 -0.05071689 0 0 Z " fill="#393939" transform="translate(458,215)"/>
<path d="M0 0 C0 0.99 0 1.98 0 3 C-1.13429443 3.21148682 -1.13429443 3.21148682 -2.29150391 3.42724609 C-5.73683165 4.07215567 -9.18090996 4.72351432 -12.625 5.375 C-13.81480469 5.59671875 -15.00460938 5.8184375 -16.23046875 6.046875 C-17.96103516 6.37558594 -17.96103516 6.37558594 -19.7265625 6.7109375 C-20.78439941 6.90993652 -21.84223633 7.10893555 -22.93212891 7.31396484 C-26.05389704 7.9572265 -26.05389704 7.9572265 -29.21240234 9.07275391 C-31.9996862 9.99989562 -34.0881471 10.17128546 -37 10 C-34.01221979 8.00814653 -31.84303868 7.25660481 -28.4140625 6.30859375 C-27.31835938 6.00373047 -26.22265625 5.69886719 -25.09375 5.38476562 C-23.9490625 5.07216797 -22.804375 4.75957031 -21.625 4.4375 C-20.48804688 4.12103516 -19.35109375 3.80457031 -18.1796875 3.47851562 C-5.59499403 0 -5.59499403 0 0 0 Z " fill="#1C1C1C" transform="translate(237,197)"/>
<path d="M0 0 C0.66 0 1.32 0 2 0 C2 0.66 2 1.32 2 2 C9.28499714 3.72864339 16.59211729 4.92373883 24 6 C23.01 7.32 22.02 8.64 21 10 C17.64265008 9.3703336 14.40502009 8.58087706 11.13671875 7.58984375 C10.25048828 7.32236328 9.36425781 7.05488281 8.45117188 6.77929688 C7.53916016 6.50150391 6.62714844 6.22371094 5.6875 5.9375 C4.75615234 5.65583984 3.82480469 5.37417969 2.86523438 5.08398438 C0.57618453 4.39140006 -1.71219287 3.69667622 -4 3 C-2.68 2.67 -1.36 2.34 0 2 C0 1.34 0 0.68 0 0 Z " fill="#1E1E1E" transform="translate(312,250)"/>
<path d="M0 0 C1.24394531 -0.01417969 2.48789062 -0.02835938 3.76953125 -0.04296875 C6.91273994 0.16897332 8.57521164 0.52274193 11.1875 2.1875 C10.8575 2.8475 10.5275 3.5075 10.1875 4.1875 C0.7825 4.6825 0.7825 4.6825 -8.8125 5.1875 C-7.8225 4.5275 -6.8325 3.8675 -5.8125 3.1875 C-6.4725 2.5275 -7.1325 1.8675 -7.8125 1.1875 C-5.89438567 -0.73061433 -2.54660709 0.01311332 0 0 Z " fill="#2C2C2C" transform="translate(413.8125,216.8125)"/>
<path d="M0 0 C0.66 0.33 1.32 0.66 2 1 C-3.5 6 -3.5 6 -8 6 C-10.04990855 6.62170851 -10.04990855 6.62170851 -12.1171875 7.53125 C-13.27541016 8.00498047 -13.27541016 8.00498047 -14.45703125 8.48828125 C-16.0623643 9.15997957 -17.66654554 9.83443768 -19.26953125 10.51171875 C-23.69225685 12.31466013 -27.12697396 13.43872903 -32 13 C-28.96916696 10.97944464 -26.28513638 9.89728324 -22.87109375 8.65234375 C-21.67162109 8.21212891 -20.47214844 7.77191406 -19.23632812 7.31835938 C-17.97012344 6.85787666 -16.70384655 6.39759243 -15.4375 5.9375 C-12.95640942 5.03163476 -10.47621086 4.12337509 -7.99609375 3.21484375 C-6.89450928 2.81386475 -5.7929248 2.41288574 -4.65795898 1.99975586 C-2.07450822 1.08045996 -2.07450822 1.08045996 0 0 Z " fill="#959595" transform="translate(485,156)"/>
<path d="M0 0 C0.99 0.495 0.99 0.495 2 1 C2 1.66 2 2.32 2 3 C3.32 3.66 4.64 4.32 6 5 C6 5.66 6 6.32 6 7 C6.556875 7.226875 7.11375 7.45375 7.6875 7.6875 C10.63246684 9.35896766 12.68156544 11.55276352 15 14 C14.67 14.66 14.34 15.32 14 16 C13.64830932 17.32860925 13.31229724 18.66158328 13 20 C12.01287122 18.75627811 11.03560095 17.50472782 10.0625 16.25 C9.51722656 15.55390625 8.97195312 14.8578125 8.41015625 14.140625 C7.02574346 12.03907872 6.43713013 10.45678201 6 8 C5.34 8 4.68 8 4 8 C0 2.58823529 0 2.58823529 0 0 Z " fill="#0B0B0B" transform="translate(223,297)"/>
<path d="M0 0 C3.94525179 3.38663207 5.69994213 7.09557676 7.75 11.75 C8.22373047 12.79607422 8.22373047 12.79607422 8.70703125 13.86328125 C9.47941952 15.57189773 10.24082982 17.28546959 11 19 C7.02081635 17.83893508 4.18147958 16.68696122 1.125 13.875 C0.52945313 13.33617187 -0.06609375 12.79734375 -0.6796875 12.2421875 C-1.11539063 11.83226562 -1.55109375 11.42234375 -2 11 C-1.67 10.34 -1.34 9.68 -1 9 C0.32 9.99 1.64 10.98 3 12 C2.40075776 7.80530429 1.42500059 3.99000166 0 0 Z " fill="#505050" transform="translate(196,298)"/>
<path d="M0 0 C0.66 0.99 1.32 1.98 2 3 C1.60167969 3.42410156 1.20335937 3.84820312 0.79296875 4.28515625 C-2.85601217 8.32478233 -5.38366047 11.77066623 -7 17 C-6.79653753 20.32224191 -6.79653753 20.32224191 -6 23 C-6.66 23 -7.32 23 -8 23 C-8 23.66 -8 24.32 -8 25 C-8.99 24.67 -9.98 24.34 -11 24 C-10.31253738 14.37552335 -5.36408057 7.65981876 0 0 Z " fill="#5D5D5D" transform="translate(188,161)"/>
<path d="M0 0 C0.66 0 1.32 0 2 0 C1.35173874 3.50061082 -0.14652725 5.98810679 -2 9 C-2.33 9.99 -2.66 10.98 -3 12 C-3.33 12.66 -3.66 13.32 -4 14 C-4.99 14 -5.98 14 -7 14 C-6.896875 14.721875 -6.79375 15.44375 -6.6875 16.1875 C-7.12449065 20.12041589 -9.10082197 21.46321923 -12 24 C-9.84073124 16.17265075 -5.8870549 5.8870549 0 0 Z " fill="#1C1C1C" transform="translate(250,169)"/>
<path d="M0 0 C4.36874148 1.47778131 7.55321388 3.74987857 11.1875 6.5625 C14.92771244 9.54428674 14.92771244 9.54428674 19 12 C19 13.98 19 15.96 19 18 C14.8130656 14.48876683 10.86609006 10.86609006 7 7 C6.01 6.34 5.02 5.68 4 5 C4 4.34 4 3.68 4 3 C2.68 2.34 1.36 1.68 0 1 C0 0.67 0 0.34 0 0 Z " fill="#070707" transform="translate(245,286)"/>
<path d="M0 0 C0 0.33 0 0.66 0 1 C5.61 1.66 11.22 2.32 17 3 C17 3.33 17 3.66 17 4 C12.72922344 4.05794812 8.45854764 4.09357874 4.1875 4.125 C2.97255859 4.14175781 1.75761719 4.15851563 0.50585938 4.17578125 C-0.65751953 4.18222656 -1.82089844 4.18867188 -3.01953125 4.1953125 C-4.62985229 4.21102295 -4.62985229 4.21102295 -6.27270508 4.22705078 C-9 4 -9 4 -12 2 C-7.8803623 0.70756464 -4.33168317 -0.26252625 0 0 Z " fill="#5B5B5B" transform="translate(389,220)"/>
<path d="M0 0 C1.94576514 0.20311315 3.88322361 0.48823226 5.8125 0.8125 C7.39998047 1.06966797 7.39998047 1.06966797 9.01953125 1.33203125 C11.67264572 1.92663489 13.65769579 2.65586901 16 4 C16 4.66 16 5.32 16 6 C10.56940269 6.19054727 6.16548454 5.96288412 1 4 C0.34 3.01 -0.32 2.02 -1 1 C-0.67 0.67 -0.34 0.34 0 0 Z " fill="#373737" transform="translate(368,264)"/>
<path d="M0 0 C1.72333549 2.58500324 3.23365529 5.13394035 4.6875 7.875 C5.14511719 8.71804688 5.60273438 9.56109375 6.07421875 10.4296875 C7.14952879 13.41514744 6.8877225 14.99788392 6 18 C5.01 18.33 4.02 18.66 3 19 C1.05543072 14.86581409 0.62971979 11.230003 0.375 6.6875 C0.30023438 5.43324219 0.22546875 4.17898438 0.1484375 2.88671875 C0.09945312 1.93410156 0.05046875 0.98148437 0 0 Z " fill="#0E0E0E" transform="translate(177,283)"/>
<path d="M0 0 C0.66 0.66 1.32 1.32 2 2 C1.67 3.32 1.34 4.64 1 6 C-3.62 6 -8.24 6 -13 6 C-10.22626145 1.83939218 -7.56732245 1.36878175 -2.8125 0.25 C-1.4203125 0.12625 -1.4203125 0.12625 0 0 Z " fill="#050505" transform="translate(422,210)"/>
<path d="M0 0 C0 0.33 0 0.66 0 1 C-3.95615901 1.68000722 -7.91520618 2.34151743 -11.875 3 C-13.53789062 3.28617188 -13.53789062 3.28617188 -15.234375 3.578125 C-21.89215834 4.67470108 -28.25304388 5.27484065 -35 5 C-35 4.67 -35 4.34 -35 4 C-30.67047391 3.12573419 -26.33595743 2.27923839 -22 1.4375 C-20.77925781 1.19064453 -19.55851562 0.94378906 -18.30078125 0.68945312 C-11.84720954 -0.54893496 -6.4623399 -1.34901345 0 0 Z " fill="#676767" transform="translate(413,180)"/>
<path d="M0 0 C1.75029762 0.31082872 3.50022694 0.62373179 5.25 0.9375 C6.71179688 1.19853516 6.71179688 1.19853516 8.203125 1.46484375 C9.8541035 1.78074327 11.50003708 2.13236276 13.125 2.5625 C16.07041681 3.24976392 18.99102714 3.05786486 22 3 C21.34 2.67 20.68 2.34 20 2 C20 1.34 20 0.68 20 0 C23.93673644 1.31224548 26.22719294 2.91910327 29 6 C22.37200795 6.20044331 16.46537661 5.54718113 10 4.125 C9.14277344 3.95097656 8.28554688 3.77695312 7.40234375 3.59765625 C2.71895858 2.59566418 2.71895858 2.59566418 1 2 C0.67 1.34 0.34 0.68 0 0 Z " fill="#565656" transform="translate(260,320)"/>
<path d="M0 0 C6.10737442 1.76463072 12.07433507 3.69557475 18 6 C17.67 6.99 17.34 7.98 17 9 C12.40191871 8.46105575 9.13215631 7.23428472 5.125 4.9375 C4.15820312 4.38964844 3.19140625 3.84179688 2.1953125 3.27734375 C1.47085937 2.85582031 0.74640625 2.43429687 0 2 C0 1.34 0 0.68 0 0 Z " fill="#060606" transform="translate(298,282)"/>
<path d="M0 0 C-3.62310328 1.33852796 -7.24878144 2.66993718 -10.875 4 C-11.90753906 4.3815625 -12.94007813 4.763125 -14.00390625 5.15625 C-14.99003906 5.5171875 -15.97617187 5.878125 -16.9921875 6.25 C-17.90339355 6.58515625 -18.81459961 6.9203125 -19.75341797 7.265625 C-22 8 -22 8 -24 8 C-24.33 7.01 -24.66 6.02 -25 5 C-20.73805411 3.15677096 -16.42478639 1.95180186 -11.9375 0.8125 C-10.87692383 0.52729492 -10.87692383 0.52729492 -9.79492188 0.23632812 C-6.12436184 -0.69768293 -3.61164422 -1.11177392 0 0 Z " fill="#434343" transform="translate(478,160)"/>
<path d="M0 0 C1.09658936 3.28976808 0.79953138 4.71303767 0 8 C0.99 8.66 1.98 9.32 3 10 C3.66 9.67 4.32 9.34 5 9 C4.67 9.99 4.34 10.98 4 12 C1.93359375 12.94921875 1.93359375 12.94921875 -0.5625 13.6875 C-1.80193359 14.06455078 -1.80193359 14.06455078 -3.06640625 14.44921875 C-3.70449219 14.63097656 -4.34257812 14.81273437 -5 15 C-4.43174347 9.45949887 -2.37113483 4.96284034 0 0 Z " fill="#454545" transform="translate(175,202)"/>
<path d="M0 0 C2.24467293 2.97453591 4.4546504 5.97074609 6.625 9 C7.23601562 9.845625 7.84703125 10.69125 8.4765625 11.5625 C9.87246824 13.79594918 10.55980125 15.43019105 11 18 C8.1796875 17.40234375 8.1796875 17.40234375 5 16 C3.3203125 13.06640625 3.3203125 13.06640625 2.125 9.5625 C1.71507812 8.40878906 1.30515625 7.25507813 0.8828125 6.06640625 C0 3 0 3 0 0 Z " fill="#0C0C0C" transform="translate(196,290)"/>
<path d="M0 0 C0.99 0.33 1.98 0.66 3 1 C3.765625 2.70703125 3.765625 2.70703125 4.25 4.8125 C4.50523437 5.84310547 4.50523437 5.84310547 4.765625 6.89453125 C5 9 5 9 4 13 C1.69 10.36 -0.62 7.72 -3 5 C-2.01 3.35 -1.02 1.7 0 0 Z " fill="#494949" transform="translate(175,291)"/>
<path d="M0 0 C-2 3 -2 3 -5.37890625 3.73046875 C-6.77167013 3.89820305 -8.16645341 4.04973224 -9.5625 4.1875 C-10.28179687 4.26790527 -11.00109375 4.34831055 -11.7421875 4.43115234 C-16.8502667 4.97072197 -21.86253901 5.18348075 -27 5 C-24.27451722 3.51740465 -21.90552348 2.65076376 -18.84765625 2.1484375 C-17.68266602 1.95507812 -17.68266602 1.95507812 -16.49414062 1.7578125 C-15.69169922 1.63148438 -14.88925781 1.50515625 -14.0625 1.375 C-13.26392578 1.2409375 -12.46535156 1.106875 -11.64257812 0.96875 C-7.72468081 0.33253801 -3.98404882 -0.17706884 0 0 Z " fill="#808080" transform="translate(463,215)"/>
<path d="M0 0 C2.31 0.66 4.62 1.32 7 2 C3.29909479 5.9252025 -0.54959656 8.94580156 -5 12 C-5.66 11.67 -6.32 11.34 -7 11 C-5.47005208 9.76302083 -3.94010417 8.52604167 -2.41015625 7.2890625 C-0.86733563 6.0333609 -0.86733563 6.0333609 0 4 C-0.66 4 -1.32 4 -2 4 C-1.34 2.68 -0.68 1.36 0 0 Z " fill="#676767" transform="translate(450,184)"/>
<path d="M0 0 C2 1 4 2 6 3 C6 3.66 6 4.32 6 5 C7.32 5.66 8.64 6.32 10 7 C10 7.99 10 8.98 10 10 C6.03869629 10 5.17085599 8.65122875 2.3125 6 C1.50425781 5.2575 0.69601563 4.515 -0.13671875 3.75 C-0.75160156 3.1725 -1.36648437 2.595 -2 2 C-1.34 1.34 -0.68 0.68 0 0 Z " fill="#202020" transform="translate(243,286)"/>
<path d="M0 0 C0.66 0.33 1.32 0.66 2 1 C1.360625 1.7425 0.72125 2.485 0.0625 3.25 C-1.78333407 5.7111121 -2.56069174 7.03466926 -3 10 C-3.66 10 -4.32 10 -5 10 C-4.67 10.99 -4.34 11.98 -4 13 C-5.65 13.33 -7.3 13.66 -9 14 C-9.75 12.25 -9.75 12.25 -10 10 C-8.1875 7.75 -8.1875 7.75 -6 6 C-5.34 6 -4.68 6 -4 6 C-3.71125 5.38125 -3.4225 4.7625 -3.125 4.125 C-2 2 -2 2 0 0 Z " fill="#323232" transform="translate(203,143)"/>
<path d="M0 0 C0.66 0.33 1.32 0.66 2 1 C1.4921875 2.82421875 1.4921875 2.82421875 0 5 C-2.66617448 6.13971634 -5.11064387 7.01744182 -7.875 7.8125 C-8.59558594 8.04130859 -9.31617188 8.27011719 -10.05859375 8.50585938 C-13.78937813 9.6292171 -16.28810669 10.16646273 -20 9 C-18.0429132 8.32968281 -16.08428887 7.66385317 -14.125 7 C-13.03445313 6.62875 -11.94390625 6.2575 -10.8203125 5.875 C-8 5 -8 5 -6 5 C-6 4.34 -6 3.68 -6 3 C-4.03533587 1.93224776 -2.03144641 0.93446535 0 0 Z " fill="#555555" transform="translate(412,242)"/>
<path d="M0 0 C6.06370342 0.60497958 11.65514242 1.8633028 17.5 3.5625 C18.32242188 3.79646484 19.14484375 4.03042969 19.9921875 4.27148438 C21.99629058 4.84242072 23.99836591 5.42046705 26 6 C26 6.66 26 7.32 26 8 C24.68 8.33 23.36 8.66 22 9 C22 8.34 22 7.68 22 7 C20.91460937 6.73445312 19.82921875 6.46890625 18.7109375 6.1953125 C17.26559353 5.83866918 15.82028278 5.4818912 14.375 5.125 C13.30572266 4.86396484 13.30572266 4.86396484 12.21484375 4.59765625 C8.07203784 3.57145662 4.03273322 2.41209271 0 1 C0 0.67 0 0.34 0 0 Z " fill="#5E5E5E" transform="translate(234,227)"/>
<path d="M0 0 C21.00917431 -0.19877676 21.00917431 -0.19877676 30 1 C30 1.33 30 1.66 30 2 C20.1 2.495 20.1 2.495 10 3 C10 2.34 10 1.68 10 1 C6.7 1 3.4 1 0 1 C0 0.67 0 0.34 0 0 Z " fill="#5F5F5F" transform="translate(262,212)"/>
<path d="M0 0 C1.04449911 3.13349732 0.93423645 3.98968256 0 7 C0.66 7.33 1.32 7.66 2 8 C1.875 9.8125 1.875 9.8125 1 12 C-2.0625 13.75 -2.0625 13.75 -5 15 C-3.97137215 9.55432314 -2.75385216 4.88182883 0 0 Z " fill="#6E6E6E" transform="translate(178,178)"/>
<path d="M0 0 C-1.32 0.33 -2.64 0.66 -4 1 C-4 1.66 -4 2.32 -4 3 C-9.96674616 4.32594359 -15.92583615 4.0884587 -22 4 C-18.53058171 1.68705447 -16.23349085 1.42221971 -12.125 0.875 C-10.91070312 0.70742187 -9.69640625 0.53984375 -8.4453125 0.3671875 C-5.58781432 0.06264688 -2.86793753 -0.07633294 0 0 Z " fill="#484848" transform="translate(272,195)"/>
<path d="M0 0 C5.68502535 1.64566523 10.76681636 4.29032784 16 7 C16 7.66 16 8.32 16 9 C17.98 9.66 19.96 10.32 22 11 C19 12 19 12 16.328125 10.9609375 C10.55996935 7.98901974 5.08684899 5.04635715 0 1 C0 0.67 0 0.34 0 0 Z " fill="#484848" transform="translate(274,276)"/>
<path d="M0 0 C-3.08632611 3.2626876 -5.93483504 6.02235218 -10 8 C-10.66 7.67 -11.32 7.34 -12 7 C-11.01 6.01 -10.02 5.02 -9 4 C-9.66 3.67 -10.32 3.34 -11 3 C-9 0 -9 0 -6.0625 -0.75 C-3 -1 -3 -1 0 0 Z " fill="#636363" transform="translate(460,218)"/>
<path d="M0 0 C0.33 0.66 0.66 1.32 1 2 C2.32 2 3.64 2 5 2 C5.33 3.98 5.66 5.96 6 8 C4.35 8 2.7 8 1 8 C1.33 6.68 1.66 5.36 2 4 C-0.64 3.67 -3.28 3.34 -6 3 C-4.60722783 0.21445565 -3.01148006 0 0 0 Z " fill="#171717" transform="translate(290,209)"/>
<path d="M0 0 C4.05819183 0.65503282 7.53971282 1.94559121 11.3125 3.5625 C12.38113281 4.01753906 13.44976562 4.47257812 14.55078125 4.94140625 C15.76314453 5.46541016 15.76314453 5.46541016 17 6 C14 8 14 8 10.4375 7.875 C9.303125 7.58625 8.16875 7.2975 7 7 C5.875 5.0625 5.875 5.0625 5 3 C2.46229997 1.71745356 2.46229997 1.71745356 0 1 C0 0.67 0 0.34 0 0 Z " fill="#575757" transform="translate(307,294)"/>
<path d="M0 0 C8.41567099 0.5762081 16.67948259 1.61772049 25 3 C23.70703125 4.5390625 23.70703125 4.5390625 22 6 C18.6875 5.375 18.6875 5.375 16.60546875 4.75 C13.26802137 3.78929551 9.89823367 3.08969424 6.5 2.375 C5.2728125 2.11460937 4.045625 1.85421875 2.78125 1.5859375 C1.8634375 1.39257812 0.945625 1.19921875 0 1 C0 0.67 0 0.34 0 0 Z " fill="#6A6A6A" transform="translate(364,268)"/>
<path d="M0 0 C3.5218253 1.95656961 6.34442785 3.95100975 9 7 C9 7.66 9 8.32 9 9 C6.69 8.67 4.38 8.34 2 8 C0.74335022 5.09399739 0 3.20395416 0 0 Z " fill="#3A3A3A" transform="translate(197,240)"/>
<path d="M0 0 C0.99 0.495 0.99 0.495 2 1 C2 1.66 2 2.32 2 3 C2.66 3 3.32 3 4 3 C5.65 5.97 7.3 8.94 9 12 C6.69 12 4.38 12 2 12 C1.855625 10.7625 1.71125 9.525 1.5625 8.25 C1.21311498 5.43495501 0.79620634 2.7298503 0 0 Z " fill="#414141" transform="translate(215,292)"/>
<path d="M0 0 C2 1 2 1 2 1 Z M-0.125 1.5 C2.28885269 2.06796534 3.66839233 1.74944532 6 1 C3.52414762 3.65269897 1.40973899 5.68010103 -2 7 C-2.99 7 -3.98 7 -5 7 C-4.625 4.5625 -4.625 4.5625 -4 2 C-2 1 -2 1 -0.125 1.5 Z " fill="#575757" transform="translate(205,169)"/>
<path d="M0 0 C8.5915493 1.83098592 8.5915493 1.83098592 11 5 C11.556875 5.556875 12.11375 6.11375 12.6875 6.6875 C13.3371875 7.3371875 13.3371875 7.3371875 14 8 C13.01 8.495 13.01 8.495 12 9 C9.43359375 7.63671875 9.43359375 7.63671875 6.4375 5.6875 C4.95056641 4.73423828 4.95056641 4.73423828 3.43359375 3.76171875 C1 2 1 2 0 0 Z " fill="#1D1D1D" transform="translate(258,264)"/>
<path d="M0 0 C0.66 0.33 1.32 0.66 2 1 C-9.09433962 8.54716981 -9.09433962 8.54716981 -14 11 C-14.99 10.67 -15.98 10.34 -17 10 C-16.443125 9.69707031 -15.88625 9.39414063 -15.3125 9.08203125 C-10.61580734 6.50361045 -6.07145301 3.81790971 -1.62890625 0.8203125 C-0.82259766 0.41425781 -0.82259766 0.41425781 0 0 Z " fill="#696969" transform="translate(441,196)"/>
<path d="M0 0 C0.99 0 1.98 0 3 0 C3 0.66 3 1.32 3 2 C3.66 2 4.32 2 5 2 C5 2.99 5 3.98 5 5 C5.99 5.66 6.98 6.32 8 7 C4.23375329 8.25541557 2.62811066 7.37061958 -1 6 C-1 5.34 -1 4.68 -1 4 C-0.34 4 0.32 4 1 4 C0.67 2.68 0.34 1.36 0 0 Z " fill="#101010" transform="translate(259,231)"/>
<path d="M0 0 C0 3 0 3 -1.53125 4.60546875 C-2.1809375 5.12753906 -2.830625 5.64960938 -3.5 6.1875 C-4.1496875 6.71730469 -4.799375 7.24710938 -5.46875 7.79296875 C-5.9740625 8.19128906 -6.479375 8.58960938 -7 9 C-7.33 7.02 -7.66 5.04 -8 3 C-5.36 2.01 -2.72 1.02 0 0 Z M-7 5 C-6 7 -6 7 -6 7 Z " fill="#666666" transform="translate(480,160)"/>
<path d="M0 0 C-0.66 1.32 -1.32 2.64 -2 4 C-2.66 4 -3.32 4 -4 4 C-4.33 4.66 -4.66 5.32 -5 6 C-5 5.34 -5 4.68 -5 4 C-6.65 4 -8.3 4 -10 4 C-10 3.01 -10 2.02 -10 1 C-6.61981469 -0.04005702 -3.5219721 -0.08004482 0 0 Z " fill="#212121" transform="translate(266,149)"/>
<path d="M0 0 C3.23861303 1.44424635 5.61969163 3.25772247 8.25 5.625 C8.95640625 6.25664062 9.6628125 6.88828125 10.390625 7.5390625 C10.92171875 8.02117187 11.4528125 8.50328125 12 9 C7.12859976 9 4.06163253 6.00575714 0.625 2.75 C0.08875 2.1725 -0.4475 1.595 -1 1 C-0.67 0.67 -0.34 0.34 0 0 Z " fill="#353535" transform="translate(262,304)"/>
<path d="M0 0 C0.66 0 1.32 0 2 0 C2 0.66 2 1.32 2 2 C2.66 2 3.32 2 4 2 C4 2.99 4 3.98 4 5 C4.66 5 5.32 5 6 5 C6.33 6.32 6.66 7.64 7 9 C4.03 8.505 4.03 8.505 1 8 C1 7.01 1 6.02 1 5 C0.68911632 3.32900023 0.35919668 1.66128463 0 0 Z " fill="#363636" transform="translate(183,237)"/>
<path d="M0 0 C-0.33 0.66 -0.66 1.32 -1 2 C-1.35169068 3.32860925 -1.68770276 4.66158328 -2 6 C-2.7425 5.95875 -3.485 5.9175 -4.25 5.875 C-7.08758952 6.00398134 -8.58773938 6.57051222 -11 8 C-11 6 -11 6 -9.609375 4.4921875 C-8.99578125 3.95851562 -8.3821875 3.42484375 -7.75 2.875 C-7.14671875 2.33617187 -6.5434375 1.79734375 -5.921875 1.2421875 C-4 0 -4 0 0 0 Z " fill="#0F0F0F" transform="translate(471,177)"/>
<path d="M0 0 C-5.34532193 3.56354796 -10.49939519 5.48754536 -17 5 C-14.15819378 3.10546252 -11.68435185 1.99807186 -8.5 0.8125 C-7.5409375 0.44769531 -6.581875 0.08289063 -5.59375 -0.29296875 C-3 -1 -3 -1 0 0 Z " fill="#888888" transform="translate(470,164)"/>
<path d="M0 0 C0.57234375 0.21527344 1.1446875 0.43054688 1.734375 0.65234375 C0.11299117 3.89511141 -3.01673094 4.3413865 -6.265625 5.65234375 C-7.255625 6.14734375 -7.255625 6.14734375 -8.265625 6.65234375 C-8.925625 5.99234375 -9.585625 5.33234375 -10.265625 4.65234375 C-9.02618224 3.78292881 -7.77355441 2.93228918 -6.515625 2.08984375 C-5.81953125 1.61417969 -5.1234375 1.13851562 -4.40625 0.6484375 C-2.265625 -0.34765625 -2.265625 -0.34765625 0 0 Z " fill="#090909" transform="translate(438.265625,201.34765625)"/>
<path d="M0 0 C6.15762212 -0.32987261 10.42266865 0.26025829 16 3 C16.72265625 5.109375 16.72265625 5.109375 17 7 C16.67 6.34 16.34 5.68 16 5 C10.87027782 2.89549859 5.42820553 2.00840182 0 1 C0 0.67 0 0.34 0 0 Z " fill="#232323" transform="translate(264,140)"/>
<path d="M0 0 C5.76044212 0.60636233 10.72014369 2.75658279 16 5 C16 5.33 16 5.66 16 6 C9.75276774 6.82200425 5.28682163 3.92551394 0 1 C0 0.67 0 0.34 0 0 Z " fill="#646464" transform="translate(322,301)"/>
<path d="M0 0 C2 1 2 1 2 1 Z M0 1 C-1.25202867 4.75608601 -2.63063573 5.14684965 -6 7 C-6.33 7.33 -6.66 7.66 -7 8 C-8.66617115 8.04063832 -10.33388095 8.042721 -12 8 C-9.96660352 4.94990528 -9.15653311 4.3269396 -6 2.8125 C-5.29875 2.46832031 -4.5975 2.12414062 -3.875 1.76953125 C-2 1 -2 1 0 1 Z " fill="#1C1C1C" transform="translate(210,171)"/>
<path d="M0 0 C4.29 0 8.58 0 13 0 C12.67 0.99 12.34 1.98 12 3 C10.37419034 2.88601335 8.74932843 2.75844341 7.125 2.625 C6.22007812 2.55539062 5.31515625 2.48578125 4.3828125 2.4140625 C2 2 2 2 0 0 Z " fill="#040404" transform="translate(347,257)"/>
<path d="M0 0 C1.65 0.99 3.3 1.98 5 3 C5 2.34 5 1.68 5 1 C5.66 1 6.32 1 7 1 C7 2.32 7 3.64 7 5 C7.66 5 8.32 5 9 5 C8.67 5.99 8.34 6.98 8 8 C1.42857143 4 1.42857143 4 0 0 Z " fill="#494949" transform="translate(194,307)"/>
<path d="M0 0 C0.80050781 0.22042969 1.60101563 0.44085938 2.42578125 0.66796875 C3.23402344 0.88066406 4.04226563 1.09335937 4.875 1.3125 C5.79732422 1.58126953 5.79732422 1.58126953 6.73828125 1.85546875 C6.73828125 2.51546875 6.73828125 3.17546875 6.73828125 3.85546875 C3.76828125 3.36046875 3.76828125 3.36046875 0.73828125 2.85546875 C0.73828125 3.51546875 0.73828125 4.17546875 0.73828125 4.85546875 C-1.24171875 4.19546875 -3.22171875 3.53546875 -5.26171875 2.85546875 C-2.89519796 -0.18501265 -2.89519796 -0.18501265 0 0 Z " fill="#212121" transform="translate(291.26171875,279.14453125)"/>
<path d="M0 0 C1.134375 0.020625 2.26875 0.04125 3.4375 0.0625 C3.4375 1.0525 3.4375 2.0425 3.4375 3.0625 C1.4575 4.0525 1.4575 4.0525 -0.5625 5.0625 C-1.8825 3.7425 -3.2025 2.4225 -4.5625 1.0625 C-3.5625 0.0625 -3.5625 0.0625 0 0 Z " fill="#222222" transform="translate(276.5625,271.9375)"/>
<path d="M0 0 C0.66 0 1.32 0 2 0 C1.35341074 3.49158202 0.03960471 6.0974856 -2 9 C-2.99 9.33 -3.98 9.66 -5 10 C-4.38479725 6.00118212 -2.39731331 3.19641774 0 0 Z " fill="#161616" transform="translate(250,169)"/>
<path d="M0 0 C0.99 0 1.98 0 3 0 C3.33 0.99 3.66 1.98 4 3 C2.125 6.1875 2.125 6.1875 0 9 C-0.33 9 -0.66 9 -1 9 C-1.09765625 2.84765625 -1.09765625 2.84765625 -1 1 C-0.67 0.67 -0.34 0.34 0 0 Z " fill="#0F0F0F" transform="translate(187,154)"/>
<path d="M0 0 C4.20626034 1.50223584 5.73900021 4.28550034 8 8 C5.03 7.505 5.03 7.505 2 7 C1.855625 6.401875 1.71125 5.80375 1.5625 5.1875 C1.1127561 3.43849596 0.57107659 1.71322977 0 0 Z " fill="#575757" transform="translate(235,318)"/>
<path d="M0 0 C-2.54605302 2.00047023 -4.9664636 3.82572785 -8 5 C-8.99 4.67 -9.98 4.34 -11 4 C-11.33 3.34 -11.66 2.68 -12 2 C-7.82262526 0.40861915 -4.46839215 -0.21278058 0 0 Z " fill="#7C7C7C" transform="translate(420,274)"/>
<path d="M0 0 C2.97 0.33 5.94 0.66 9 1 C9 1.99 9 2.98 9 4 C6.36 4 3.72 4 1 4 C0.67 2.68 0.34 1.36 0 0 Z " fill="#3E3E3E" transform="translate(375,266)"/>
<path d="M0 0 C-1.32 1.32 -2.64 2.64 -4 4 C-4 3.34 -4 2.68 -4 2 C-7.63 2 -11.26 2 -15 2 C-15 1.67 -15 1.34 -15 1 C-9.94997778 -0.03590199 -5.12583611 -0.10251672 0 0 Z " fill="#5E5E5E" transform="translate(308,192)"/>
<path d="M0 0 C4.75481646 0.57634139 7.97048212 2.55068521 12 5 C11.67 5.66 11.34 6.32 11 7 C9.35 7 7.7 7 6 7 C6 6.34 6 5.68 6 5 C4.01924973 3.63823419 2.01920337 2.30406884 0 1 C0 0.67 0 0.34 0 0 Z " fill="#4B4B4B" transform="translate(218,239)"/>
<path d="M0 0 C2.97 0.495 2.97 0.495 6 1 C5.01 2.485 5.01 2.485 4 4 C4.99 4.33 5.98 4.66 7 5 C7 5.66 7 6.32 7 7 C3.62496331 5.8141763 1.35277269 4.72426311 -1 2 C-0.67 1.34 -0.34 0.68 0 0 Z " fill="#444444" transform="translate(219,312)"/>
<path d="M0 0 C0.33 0 0.66 0 1 0 C1.33 3.63 1.66 7.26 2 11 C1.01 11.33 0.02 11.66 -1 12 C-1.02712066 10.56260487 -1.04645067 9.12506137 -1.0625 7.6875 C-1.07410156 6.88699219 -1.08570313 6.08648437 -1.09765625 5.26171875 C-1 3 -1 3 0 0 Z " fill="#0D0D0D" transform="translate(163,272)"/>
<path d="M0 0 C0.86625 0.3403125 0.86625 0.3403125 1.75 0.6875 C-1.13035092 2.92777294 -4.09866512 4.84922132 -7.25 6.6875 C-6.87492618 3.96821483 -6.40781339 2.84531339 -4.4375 0.875 C-2.25 -0.3125 -2.25 -0.3125 0 0 Z " fill="#0E0E0E" transform="translate(451.25,192.3125)"/>
<path d="M0 0 C1.125 1.6875 1.125 1.6875 2 4 C1.125 6.75 1.125 6.75 0 9 C-0.66 9 -1.32 9 -2 9 C-2.125 5.625 -2.125 5.625 -2 2 C-1.34 1.34 -0.68 0.68 0 0 Z " fill="#2A2A2A" transform="translate(180,192)"/>
<path d="M0 0 C3.82669043 3.42388092 5.72278474 6.00724943 7 11 C5.62437146 9.71034824 4.29233607 8.37310707 3 7 C3 6.34 3 5.68 3 5 C2.34 5 1.68 5 1 5 C0.67 3.35 0.34 1.7 0 0 Z " fill="#252525" transform="translate(216,290)"/>
<path d="M0 0 C-0.66 1.65 -1.32 3.3 -2 5 C-3.98 4.34 -5.96 3.68 -8 3 C-8 2.34 -8 1.68 -8 1 C-5.07175348 0.02391783 -3.04386724 -0.08226668 0 0 Z " fill="#5E5E5E" transform="translate(458,169)"/>
<path d="M0 0 C1.20628008 2.33214148 2.1654738 4.49642139 3 7 C1.68 7.33 0.36 7.66 -1 8 C-1.33 5.69 -1.66 3.38 -2 1 C-1.34 0.67 -0.68 0.34 0 0 Z " fill="#222222" transform="translate(191,240)"/>
<path d="M0 0 C0.66 0.33 1.32 0.66 2 1 C2 1.99 2 2.98 2 4 C2.99 4.33 3.98 4.66 5 5 C0.25 7 0.25 7 -2 7 C-1.34 4.69 -0.68 2.38 0 0 Z " fill="#5A5A5A" transform="translate(458,175)"/>
<path d="M0 0 C2.31 0.33 4.62 0.66 7 1 C7 1.66 7 2.32 7 3 C6.01 3 5.02 3 4 3 C4.33 3.66 4.66 4.32 5 5 C4.34 5.66 3.68 6.32 3 7 C0 2.25 0 2.25 0 0 Z " fill="#515151" transform="translate(199,128)"/>
<path d="M0 0 C1.98 0.66 3.96 1.32 6 2 C5.67 2.99 5.34 3.98 5 5 C2.69 4.34 0.38 3.68 -2 3 C-1.34 2.01 -0.68 1.02 0 0 Z " fill="#3C3C3C" transform="translate(316,294)"/>
<path d="M0 0 C2.64 0.99 5.28 1.98 8 3 C6.3125 4.125 6.3125 4.125 4 5 C1.25 4.125 1.25 4.125 -1 3 C-0.67 2.01 -0.34 1.02 0 0 Z " fill="#171717" transform="translate(205,243)"/>
<path d="M0 0 C1.32 0.66 2.64 1.32 4 2 C4 2.66 4 3.32 4 4 C0.71303767 4.79953138 -0.71023192 5.09658936 -4 4 C-4 3.34 -4 2.68 -4 2 C-2.68 2.33 -1.36 2.66 0 3 C0 2.01 0 1.02 0 0 Z " fill="#0A0A0A" transform="translate(181,243)"/>
<path d="M0 0 C0.66 0.33 1.32 0.66 2 1 C2 1.99 2 2.98 2 4 C0.35 4.66 -1.3 5.32 -3 6 C-3.33 4.68 -3.66 3.36 -4 2 C-2.125 0.9375 -2.125 0.9375 0 0 Z " fill="#535353" transform="translate(428,233)"/>
<path d="M0 0 C0.99 0.66 1.98 1.32 3 2 C3.66 2.33 4.32 2.66 5 3 C2.69 4.32 0.38 5.64 -2 7 C-1.125 1.125 -1.125 1.125 0 0 Z " fill="#7C7C7C" transform="translate(175,186)"/>
<path d="M0 0 C-4.39453125 4.00390625 -4.39453125 4.00390625 -6 5 C-6.99 4.67 -7.98 4.34 -9 4 C-6.77642026 0.66463039 -4.04815944 -2.02407972 0 0 Z " fill="#0C0C0C" transform="translate(428,241)"/>
<path d="M0 0 C2.64 0 5.28 0 8 0 C7.34 1.32 6.68 2.64 6 4 C4.02 3.01 2.04 2.02 0 1 C0 0.67 0 0.34 0 0 Z " fill="#0F0F0F" transform="translate(225,241)"/>
<path d="M0 0 C2.31 0.66 4.62 1.32 7 2 C7 2.66 7 3.32 7 4 C5.68 4.33 4.36 4.66 3 5 C3 4.34 3 3.68 3 3 C1.35 2.67 -0.3 2.34 -2 2 C-1.34 1.34 -0.68 0.68 0 0 Z " fill="#565656" transform="translate(253,231)"/>
<path d="M0 0 C0.66 0 1.32 0 2 0 C2 0.66 2 1.32 2 2 C2.66 2 3.32 2 4 2 C4.33 1.34 4.66 0.68 5 0 C5.33 1.98 5.66 3.96 6 6 C5.34 6 4.68 6 4 6 C4 5.34 4 4.68 4 4 C2.68 3.34 1.36 2.68 0 2 C0 1.34 0 0.68 0 0 Z " fill="#424242" transform="translate(279,148)"/>
<path d="M0 0 C0.66666667 2.66666667 1.33333333 5.33333333 2 8 C0.68 7.34 -0.64 6.68 -2 6 C-2 3 -2 3 0 0 Z " fill="#424242" transform="translate(175,291)"/>
<path d="M0 0 C0.66 0.33 1.32 0.66 2 1 C-0.64 2.98 -3.28 4.96 -6 7 C-6.66 6.67 -7.32 6.34 -8 6 C-5.36 4.02 -2.72 2.04 0 0 Z " fill="#7B7B7B" transform="translate(456,219)"/>
<path d="M0 0 C0 0.99 0 1.98 0 3 C-1.98 3.66 -3.96 4.32 -6 5 C-6.33 3.68 -6.66 2.36 -7 1 C-3.535 0.505 -3.535 0.505 0 0 Z " fill="#5A5A5A" transform="translate(195,176)"/>
<path d="M0 0 C3.96 0.33 7.92 0.66 12 1 C12 1.33 12 1.66 12 2 C8.7 2.33 5.4 2.66 2 3 C1.34 2.01 0.68 1.02 0 0 Z " fill="#070707" transform="translate(340,292)"/>
<path d="M0 0 C0.66 0.33 1.32 0.66 2 1 C0.515 3.475 0.515 3.475 -1 6 C-1.99 5.67 -2.98 5.34 -4 5 C-2.25 1.125 -2.25 1.125 0 0 Z " fill="#0C0C0C" transform="translate(179,189)"/>
<path d="M0 0 C0.99 0.33 1.98 0.66 3 1 C3 1.99 3 2.98 3 4 C2.01 4.33 1.02 4.66 0 5 C-0.99 4.34 -1.98 3.68 -3 3 C-2.01 2.01 -1.02 1.02 0 0 Z " fill="#101010" transform="translate(482,162)"/>
<path d="M0 0 C0.5534764 2.07553648 1 3.84365964 1 6 C-0.32 6 -1.64 6 -3 6 C-2.625 3.5625 -2.625 3.5625 -2 1 C-1.34 0.67 -0.68 0.34 0 0 Z " fill="#444444" transform="translate(255,145)"/>
</svg>
