<?xml version="1.0" standalone="no"?>
<!DOCTYPE svg PUBLIC "-//W3C//DTD SVG 20010904//EN"
 "http://www.w3.org/TR/2001/REC-SVG-20010904/DTD/svg10.dtd">
<svg version="1.0" xmlns="http://www.w3.org/2000/svg"
 width="512.000000pt" height="512.000000pt" viewBox="0 0 512.000000 512.000000"
 preserveAspectRatio="xMidYMid meet">

<g transform="translate(0.000000,512.000000) scale(0.100000,-0.100000)"
fill="#000000" stroke="none">
<path d="M2025 3833 c-281 -40 -552 -292 -626 -581 -18 -69 -19 -114 -19 -587
0 -478 1 -517 20 -590 57 -224 198 -398 405 -500 163 -81 152 -80 740 -80 467
0 527 2 584 18 325 89 556 351 600 680 14 101 14 512 0 597 -5 36 -17 75 -25
88 -22 34 -72 61 -124 67 -127 15 -186 27 -211 42 -34 20 -53 72 -69 183 -45
310 -242 542 -545 643 -54 19 -90 21 -380 23 -176 1 -333 0 -350 -3z m651
-619 c68 -33 95 -125 54 -191 -36 -60 -51 -63 -337 -63 -238 0 -260 2 -290 20
-45 27 -66 73 -60 127 5 47 24 75 72 104 27 17 54 19 278 19 208 0 255 -3 283
-16z m404 -843 c96 -51 108 -173 25 -251 l-27 -25 -476 -3 c-462 -2 -478 -2
-510 18 -99 61 -93 212 10 263 29 15 89 17 488 17 424 0 458 -1 490 -19z"/>
<path d="M1030 1119 c109 -104 213 -155 370 -178 300 -46 822 -67 1420 -57
845 14 1089 57 1261 219 30 28 44 42 30 31 -54 -46 -154 -103 -214 -123 -118
-40 -194 -42 -1402 -39 -1051 4 -1165 5 -1215 21 -84 25 -189 81 -250 133
l-55 46 55 -53z"/>
</g>
</svg>
